<?xml version="1.0" encoding="utf-8"?>
<!-- Generator: Adobe Illustrator 25.0.1, SVG Export Plug-In . SVG Version: 6.00 Build 0)  -->
<svg version="1.1" id="Layer_1" xmlns="http://www.w3.org/2000/svg" xmlns:xlink="http://www.w3.org/1999/xlink" x="0px" y="0px"
	 viewBox="0 0 257.53 97.27" style="enable-background:new 0 0 257.53 97.27;" xml:space="preserve">
<style type="text/css">
	.st0{fill:none;}
	.st1{fill:url(#SVGID_1_);}
	.st2{fill:#0E4064;}
</style>
<g>
	<path class="st0" d="M56.65,57.15c-0.73,2.91-1.89,5.63-3.35,7.87l-0.25,0.38l0.44-0.12c4.36-1.16,8.16-4.06,10.44-7.97l0.15-0.26
		l-7.39-0.04L56.65,57.15z"/>
	<path class="st0" d="M43.87,43.48c-0.29,1.69-0.43,3.38-0.44,5.17c-0.01,1.76,0.12,3.47,0.39,5.11l0.02,0.15l10.38,0.05l0.03-0.15
		c0.28-1.64,0.43-3.35,0.44-5.1c0.01-1.79-0.12-3.48-0.39-5.18l-0.02-0.15l-10.38-0.05L43.87,43.48z"/>
	<path class="st0" d="M41.43,40.13c0.75-2.89,1.93-5.61,3.39-7.87l0.25-0.38l-0.44,0.12c-4.37,1.17-8.17,4.08-10.44,7.97l-0.15,0.26
		l7.35,0.04L41.43,40.13z"/>
	<path class="st0" d="M131.48,38.59c0.19,0.02,0.38,0.02,0.58,0.02h1.88h0.49c0.18,0,0.34-0.02,0.47-0.05
		c0.21-0.08,0.31-0.22,0.3-0.42c-0.02-0.2-0.07-0.39-0.15-0.57c-0.03-0.07-0.05-0.13-0.05-0.18c0-0.06-0.02-0.12-0.05-0.19
		c-0.21-0.56-0.41-1.13-0.59-1.7c-0.18-0.58-0.39-1.15-0.62-1.73c-0.03-0.08-0.07-0.19-0.1-0.31c-0.03-0.12-0.08-0.24-0.12-0.34
		c-0.05-0.11-0.11-0.2-0.17-0.28c-0.07-0.08-0.15-0.12-0.25-0.12c-0.03,0.03-0.07,0.06-0.1,0.07c-0.03,0.02-0.07,0.04-0.1,0.07
		c-0.13,0.16-0.23,0.36-0.28,0.59c-0.06,0.23-0.13,0.45-0.21,0.67c-0.2,0.46-0.37,0.93-0.53,1.41c-0.16,0.48-0.32,0.95-0.51,1.43
		c-0.07,0.16-0.12,0.33-0.17,0.48c-0.05,0.16-0.1,0.33-0.15,0.51c-0.05,0.13-0.04,0.28,0.02,0.45
		C131.15,38.51,131.29,38.57,131.48,38.59z"/>
	<path class="st0" d="M146.74,61.86c-0.03-0.15-0.05-0.3-0.06-0.47c-0.01-0.17-0.03-0.31-0.06-0.45c-0.03-0.08-0.05-0.16-0.04-0.23
		c0.01-0.07,0-0.15-0.04-0.23c-0.08-0.26-0.16-0.51-0.23-0.75c-0.07-0.24-0.18-0.47-0.31-0.68c-0.25-0.4-0.53-0.74-0.85-1.03
		c-0.32-0.29-0.71-0.53-1.17-0.73c-0.15-0.05-0.3-0.09-0.45-0.14c-0.15-0.04-0.3-0.08-0.44-0.11c-0.13-0.02-0.25-0.03-0.36-0.04
		c-0.11-0.01-0.23-0.03-0.36-0.06c-0.07-0.02-0.13-0.02-0.2-0.01c-0.07,0.01-0.12,0.01-0.17-0.01h-0.54
		c-0.08-0.02-0.17-0.02-0.27-0.01c-0.1,0.01-0.2,0.01-0.3,0.01h-1.11c-0.03,0.03-0.09,0.04-0.16,0.03c-0.08-0.02-0.14-0.02-0.19,0
		c-0.08,0.03-0.16,0.06-0.25,0.09c-0.08,0.02-0.15,0.08-0.2,0.16c-0.07,0.08-0.1,0.2-0.1,0.35v0.49c0,0.21-0.01,0.44-0.01,0.67
		c-0.01,0.23-0.01,0.46-0.01,0.69v6.89c0,0.1,0,0.21-0.01,0.32c-0.01,0.12,0,0.21,0.04,0.3v0.25c0,0.11,0,0.23,0.01,0.33
		c0.01,0.11,0.03,0.2,0.06,0.28c0.1,0.2,0.29,0.3,0.57,0.31c0.28,0.01,0.57,0.01,0.87,0.01c0.64,0,1.29,0,1.95-0.01
		c0.66-0.01,1.22-0.1,1.68-0.28c0.61-0.25,1.09-0.58,1.45-0.99c0.35-0.41,0.65-0.92,0.9-1.53c0.07-0.13,0.11-0.28,0.15-0.45
		c0.03-0.16,0.07-0.33,0.12-0.49v-0.2c0.03-0.12,0.05-0.24,0.05-0.37s0.02-0.26,0.05-0.4v-0.25c0.03-0.08,0.05-0.21,0.05-0.39
		c0-0.18-0.02-0.31-0.05-0.4V61.86z"/>
	<path class="st0" d="M40.72,53.69c-0.24-1.72-0.36-3.37-0.35-5.05c0.01-1.7,0.14-3.43,0.4-5.12l0.03-0.2l-8.1-0.04l-0.04,0.12
		c-0.53,1.65-0.81,3.38-0.82,5.16c-0.01,1.78,0.25,3.52,0.77,5.17l0.04,0.12l8.1,0.04L40.72,53.69z"/>
	<path class="st0" d="M153.68,34.81c0.1-0.15,0.17-0.31,0.22-0.49c0.05-0.18,0.1-0.39,0.15-0.62c0.03-0.18,0.04-0.4,0.01-0.67
		c-0.03-0.26-0.05-0.46-0.09-0.59c-0.03-0.07-0.05-0.12-0.05-0.17c0-0.05-0.02-0.1-0.05-0.15c-0.2-0.51-0.56-0.88-1.09-1.11
		c-0.28-0.13-0.6-0.21-0.96-0.22c-0.36-0.02-0.74-0.03-1.14-0.03h-2.86c-0.03,0.03-0.07,0.05-0.1,0.04
		c-0.03-0.01-0.07-0.01-0.1-0.01c-0.2,0.05-0.33,0.13-0.39,0.25c-0.08,0.13-0.12,0.3-0.11,0.51c0.01,0.21,0.01,0.41,0.01,0.6v2.3
		v0.59c0,0.2,0.04,0.35,0.12,0.47c0.07,0.1,0.17,0.16,0.32,0.2c0.15,0.03,0.31,0.06,0.49,0.07c0.18,0.02,0.37,0.02,0.57,0.01
		c0.2-0.01,0.37-0.01,0.52-0.01h1.46c0.11,0,0.24,0,0.37,0.01c0.13,0.01,0.25-0.01,0.35-0.04h0.32c0.13-0.03,0.26-0.05,0.38-0.05
		c0.12,0,0.24-0.02,0.36-0.05c0.28-0.08,0.53-0.19,0.74-0.32C153.35,35.2,153.53,35.02,153.68,34.81z"/>
	<path class="st0" d="M114.57,38.59c0.19,0.02,0.38,0.02,0.58,0.02h1.88h0.49c0.18,0,0.34-0.02,0.47-0.05
		c0.22-0.08,0.31-0.22,0.3-0.42c-0.02-0.2-0.07-0.39-0.15-0.57c-0.03-0.07-0.05-0.13-0.05-0.18c0-0.06-0.02-0.12-0.05-0.19
		c-0.21-0.56-0.41-1.13-0.59-1.7c-0.18-0.58-0.39-1.15-0.62-1.73c-0.03-0.08-0.07-0.19-0.1-0.31c-0.03-0.12-0.08-0.24-0.12-0.34
		c-0.05-0.11-0.11-0.2-0.17-0.28c-0.07-0.08-0.15-0.12-0.25-0.12c-0.03,0.03-0.07,0.06-0.1,0.07c-0.03,0.02-0.07,0.04-0.1,0.07
		c-0.13,0.16-0.23,0.36-0.28,0.59c-0.06,0.23-0.13,0.45-0.21,0.67c-0.2,0.46-0.37,0.93-0.53,1.41c-0.16,0.48-0.32,0.95-0.51,1.43
		c-0.07,0.16-0.12,0.33-0.17,0.48c-0.05,0.16-0.1,0.33-0.15,0.51c-0.05,0.13-0.04,0.28,0.02,0.45
		C114.24,38.51,114.38,38.57,114.57,38.59z"/>
	<path class="st0" d="M53.65,32.03l-0.44-0.12l0.24,0.38c1.44,2.27,2.59,5.01,3.31,7.91l0.03,0.13l7.36,0.04L64,40.1
		C61.78,36.19,58,33.25,53.65,32.03z"/>
	<path class="st0" d="M53.57,57l-9.12-0.04l0.06,0.22c0.96,3.49,2.44,6.47,4.29,8.61l0.05,0.06h0.23l0.05-0.06
		c1.88-2.14,3.39-5.1,4.37-8.57L53.57,57z"/>
	<path class="st0" d="M57.39,43.59c0.24,1.69,0.36,3.42,0.35,5.12c-0.01,1.68-0.14,3.34-0.4,5.05l-0.03,0.2l8.1,0.04l0.04-0.12
		c0.53-1.64,0.81-3.38,0.82-5.16c0.01-1.78-0.25-3.52-0.77-5.17l-0.04-0.12l-8.1-0.04L57.39,43.59z"/>
	<path class="st0" d="M44.57,40.27l9.05,0.04l-0.06-0.22c-0.95-3.49-2.47-6.5-4.29-8.48l-0.13-0.14l-0.13,0.14
		c-1.84,1.95-3.39,4.95-4.38,8.43L44.57,40.27z"/>
	<path class="st0" d="M203.84,87.79c-0.03-0.15-0.05-0.3-0.06-0.47c-0.01-0.17-0.03-0.31-0.06-0.45c-0.03-0.08-0.05-0.16-0.04-0.23
		c0.01-0.07-0.01-0.15-0.04-0.23c-0.08-0.26-0.16-0.51-0.23-0.75c-0.07-0.24-0.18-0.47-0.31-0.68c-0.25-0.39-0.53-0.74-0.85-1.02
		c-0.32-0.29-0.71-0.53-1.17-0.73c-0.15-0.05-0.3-0.1-0.45-0.14c-0.15-0.04-0.3-0.08-0.44-0.11c-0.13-0.02-0.25-0.03-0.36-0.04
		c-0.11-0.01-0.23-0.03-0.36-0.06c-0.07-0.02-0.13-0.02-0.2-0.01c-0.07,0.01-0.12,0.01-0.17-0.01h-0.54
		c-0.08-0.02-0.17-0.02-0.27-0.01c-0.1,0.01-0.2,0.01-0.3,0.01h-1.11c-0.03,0.03-0.09,0.04-0.16,0.03c-0.07-0.02-0.14-0.02-0.19,0
		c-0.08,0.03-0.16,0.06-0.25,0.09c-0.08,0.02-0.15,0.08-0.2,0.16c-0.07,0.08-0.1,0.2-0.1,0.35v0.49c0,0.21-0.01,0.44-0.01,0.67
		c-0.01,0.23-0.01,0.46-0.01,0.69v6.89c0,0.1,0,0.21-0.01,0.32c-0.01,0.11,0,0.21,0.04,0.3v0.25c0,0.11,0,0.23,0.01,0.33
		c0.01,0.11,0.03,0.2,0.06,0.28c0.1,0.2,0.29,0.3,0.57,0.31c0.28,0.01,0.57,0.01,0.87,0.01c0.64,0,1.29,0,1.95-0.01
		c0.66-0.01,1.22-0.1,1.68-0.28c0.61-0.25,1.09-0.58,1.44-0.99c0.35-0.41,0.65-0.92,0.9-1.53c0.07-0.13,0.11-0.28,0.15-0.44
		c0.03-0.16,0.07-0.33,0.12-0.49v-0.2c0.03-0.11,0.05-0.24,0.05-0.37c0-0.13,0.02-0.26,0.05-0.4v-0.25
		c0.03-0.08,0.05-0.21,0.05-0.39c0-0.18-0.02-0.31-0.05-0.4V87.79z"/>
	<path class="st0" d="M41.38,57.08l-0.03-0.13l-7.39-0.04l0.15,0.26c2.24,3.9,6,6.83,10.32,8.04l0.43,0.12l-0.24-0.38
		C43.17,62.62,42.08,59.98,41.38,57.08z"/>
	<path class="st0" d="M213.42,58.36c-0.03-0.06-0.05-0.12-0.05-0.17c0-0.05-0.02-0.1-0.05-0.15c-0.2-0.51-0.56-0.88-1.09-1.11
		c-0.28-0.13-0.6-0.21-0.96-0.22c-0.36-0.02-0.74-0.02-1.14-0.02h-2.86c-0.03,0.03-0.06,0.05-0.1,0.04
		c-0.03-0.01-0.06-0.01-0.1-0.01c-0.2,0.05-0.33,0.13-0.4,0.25c-0.08,0.13-0.12,0.3-0.11,0.51c0.01,0.21,0.01,0.41,0.01,0.6v2.3
		v0.59c0,0.2,0.04,0.35,0.12,0.47c0.07,0.1,0.17,0.16,0.32,0.2c0.15,0.03,0.31,0.06,0.49,0.08c0.18,0.01,0.37,0.02,0.57,0.01
		c0.2-0.01,0.37-0.01,0.52-0.01h1.46c0.11,0,0.24,0,0.37,0.01c0.13,0.01,0.25-0.01,0.35-0.04h0.32c0.13-0.03,0.26-0.05,0.38-0.05
		c0.12,0,0.24-0.02,0.36-0.05c0.28-0.08,0.53-0.19,0.74-0.32c0.22-0.13,0.4-0.3,0.54-0.52c0.1-0.15,0.17-0.31,0.22-0.49
		c0.05-0.18,0.1-0.39,0.15-0.62c0.03-0.18,0.04-0.4,0.01-0.67C213.48,58.69,213.45,58.49,213.42,58.36z"/>
	
		<linearGradient id="SVGID_1_" gradientUnits="userSpaceOnUse" x1="-150.0705" y1="427.6537" x2="-149.0705" y2="427.6537" gradientTransform="matrix(96.8533 0 0 -96.8533 14534.833 41467.8164)">
		<stop  offset="0" style="stop-color:#F15A2C"/>
		<stop  offset="1" style="stop-color:#F29328"/>
	</linearGradient>
	<path class="st1" d="M48.43,0h-0.02c-0.08,0-0.17,0-0.25,0C21.67,0.15,0.15,21.67,0,48.15c-0.14,24.36,18.13,44.41,41.53,48.09
		h24.84v-4.37c0-8.78-7.12-15.9-15.9-15.9h-1.42c-15.14,0-27.93-11.95-28.18-27.08c-0.26-15.56,12.45-28.28,28.02-28.02
		c15.14,0.25,27.09,13.04,27.09,28.18v33.82c0,6.06,3.74,11.24,9.04,13.37h11.83V49.29C96.85,22.39,75.3,0,48.43,0z"/>
	<path class="st2" d="M49.15,28.37h-0.1c-5.38,0-10.45,2.09-14.27,5.87c-3.84,3.81-5.97,8.89-6,14.3
		c-0.05,11.14,9,20.28,20.17,20.37c0.06,0,0.12,0,0.18,0c5.33,0,10.37-2.08,14.19-5.87c3.84-3.81,5.97-8.89,6-14.3
		c0.03-5.41-2.06-10.51-5.87-14.36C59.64,30.53,54.56,28.4,49.15,28.37z M49.14,31.48l0.13,0.14c1.82,1.97,3.34,4.98,4.29,8.48
		l0.06,0.22l-9.05-0.04l0.06-0.22c0.98-3.49,2.54-6.48,4.38-8.43L49.14,31.48z M54.27,43.38l0.02,0.15
		c0.27,1.69,0.39,3.38,0.39,5.18c-0.01,1.75-0.16,3.47-0.44,5.1l-0.03,0.15L43.84,53.9l-0.02-0.15c-0.27-1.63-0.4-3.35-0.39-5.11
		c0.01-1.79,0.15-3.48,0.44-5.17l0.02-0.15L54.27,43.38z M34.19,39.96c2.27-3.89,6.07-6.8,10.44-7.97l0.44-0.12l-0.25,0.38
		c-1.46,2.26-2.63,4.98-3.39,7.87l-0.03,0.13l-7.35-0.04L34.19,39.96z M32.61,53.73c-0.52-1.65-0.78-3.39-0.77-5.17
		c0.01-1.78,0.28-3.51,0.82-5.16l0.04-0.12l8.1,0.04l-0.03,0.2c-0.26,1.69-0.39,3.42-0.4,5.12c-0.01,1.68,0.11,3.33,0.35,5.05
		l0.03,0.2l-8.1-0.04L32.61,53.73z M44.43,65.21c-4.32-1.2-8.08-4.13-10.32-8.04l-0.15-0.26l7.39,0.04l0.03,0.13
		c0.7,2.9,1.79,5.54,3.25,7.87l0.24,0.38L44.43,65.21z M49.09,65.85h-0.23l-0.05-0.06c-1.85-2.14-3.33-5.12-4.29-8.61l-0.06-0.22
		L53.57,57l-0.06,0.22c-0.98,3.47-2.49,6.43-4.37,8.57L49.09,65.85z M63.92,57.32c-2.27,3.91-6.08,6.81-10.44,7.97l-0.44,0.12
		l0.25-0.38c1.46-2.24,2.62-4.96,3.35-7.87l0.03-0.13l7.39,0.04L63.92,57.32z M65.5,43.55c0.52,1.65,0.77,3.39,0.77,5.17
		c-0.01,1.78-0.28,3.52-0.82,5.16l-0.04,0.12l-8.1-0.04l0.03-0.2c0.26-1.71,0.39-3.37,0.4-5.05c0.01-1.71-0.11-3.43-0.35-5.12
		l-0.03-0.2l8.1,0.04L65.5,43.55z M64.15,40.37l-7.36-0.04l-0.03-0.13c-0.73-2.9-1.87-5.63-3.31-7.91l-0.24-0.38l0.44,0.12
		C58,33.25,61.78,36.19,64,40.1L64.15,40.37z"/>
	<path class="st2" d="M109.96,45.39c0.2,0.01,0.39,0.01,0.58,0.01c0.19,0,0.36-0.01,0.52-0.04c0.16-0.02,0.27-0.07,0.36-0.14
		c0.13-0.1,0.23-0.24,0.28-0.42c0.06-0.18,0.12-0.35,0.19-0.52c0.11-0.3,0.22-0.6,0.31-0.9c0.09-0.3,0.2-0.6,0.33-0.88
		c0.07-0.16,0.12-0.33,0.17-0.49c0.05-0.16,0.14-0.3,0.27-0.4c0.18-0.13,0.43-0.19,0.75-0.18c0.32,0.01,0.62,0.01,0.9,0.01h3.9
		c0.08,0,0.16,0.01,0.23,0.01c0.07,0.01,0.15,0.01,0.23,0.01c0.16,0.03,0.3,0.09,0.4,0.16c0.1,0.07,0.17,0.16,0.22,0.26
		s0.09,0.21,0.14,0.33c0.04,0.12,0.09,0.26,0.14,0.41c0.1,0.25,0.19,0.5,0.28,0.77c0.09,0.26,0.18,0.53,0.26,0.79
		c0.07,0.15,0.12,0.3,0.16,0.45c0.04,0.15,0.1,0.29,0.18,0.42c0.08,0.15,0.21,0.25,0.4,0.29c0.1,0.03,0.2,0.05,0.31,0.04
		c0.11-0.01,0.23-0.01,0.36-0.01H123c0.2,0,0.45,0.01,0.75,0.03c0.3,0.02,0.52-0.02,0.65-0.1c0.1-0.05,0.16-0.12,0.17-0.22
		c0.02-0.1,0.01-0.2-0.01-0.31c-0.02-0.11-0.06-0.21-0.1-0.31c-0.04-0.1-0.07-0.18-0.09-0.25c-0.03-0.05-0.05-0.09-0.05-0.14
		c0-0.04-0.02-0.09-0.05-0.14c-0.21-0.51-0.41-1.03-0.59-1.55c-0.18-0.53-0.38-1.05-0.59-1.58c-0.05-0.13-0.09-0.26-0.12-0.38
		c-0.03-0.12-0.08-0.25-0.15-0.38c-0.1-0.26-0.2-0.53-0.3-0.79c-0.1-0.26-0.2-0.53-0.3-0.79c-0.03-0.07-0.05-0.13-0.06-0.18
		c-0.01-0.06-0.03-0.12-0.06-0.18c-0.35-0.82-0.66-1.65-0.95-2.49c-0.29-0.84-0.6-1.67-0.93-2.49c-0.13-0.33-0.26-0.65-0.37-0.98
		c-0.12-0.32-0.24-0.65-0.37-0.98c-0.03-0.1-0.07-0.2-0.1-0.3c-0.03-0.1-0.07-0.2-0.1-0.3c-0.11-0.28-0.22-0.56-0.32-0.83
		c-0.1-0.27-0.21-0.55-0.32-0.83c-0.08-0.2-0.15-0.39-0.21-0.58c-0.06-0.19-0.18-0.33-0.36-0.43c-0.11-0.08-0.27-0.12-0.45-0.11
		c-0.19,0.01-0.38,0.01-0.56,0.01h-2.17c-0.03,0.01-0.07,0.02-0.1,0.01c-0.03-0.01-0.07,0-0.1,0.01c-0.13,0.03-0.24,0.08-0.32,0.12
		c-0.15,0.11-0.25,0.27-0.31,0.46c-0.06,0.19-0.13,0.38-0.21,0.56c-0.15,0.34-0.29,0.7-0.42,1.06c-0.13,0.36-0.26,0.72-0.39,1.06
		c-0.03,0.08-0.06,0.16-0.08,0.22c-0.02,0.07-0.04,0.14-0.07,0.22c-0.38,0.9-0.73,1.82-1.05,2.74c-0.32,0.92-0.67,1.83-1.05,2.74
		c-0.13,0.33-0.26,0.65-0.37,0.97c-0.12,0.32-0.24,0.65-0.37,0.97c-0.13,0.35-0.26,0.7-0.39,1.06c-0.13,0.36-0.26,0.72-0.4,1.06
		c-0.07,0.13-0.12,0.26-0.15,0.39c-0.03,0.13-0.08,0.26-0.15,0.4c-0.15,0.38-0.29,0.77-0.43,1.16c-0.14,0.4-0.29,0.78-0.46,1.16
		c-0.03,0.07-0.07,0.15-0.1,0.25c-0.03,0.1-0.06,0.2-0.09,0.31c-0.02,0.11-0.03,0.21-0.02,0.31c0.01,0.1,0.05,0.17,0.14,0.22
		c0.13,0.08,0.35,0.12,0.65,0.11c0.3-0.01,0.56-0.01,0.78-0.01C109.59,45.38,109.76,45.38,109.96,45.39z M114.13,37.95
		c0.05-0.18,0.1-0.35,0.15-0.51c0.05-0.16,0.11-0.32,0.17-0.48c0.18-0.48,0.35-0.95,0.51-1.43c0.16-0.48,0.33-0.95,0.53-1.41
		c0.08-0.21,0.15-0.44,0.21-0.67c0.06-0.23,0.15-0.43,0.28-0.59c0.03-0.03,0.07-0.06,0.1-0.07c0.03-0.02,0.07-0.04,0.1-0.07
		c0.1,0,0.18,0.04,0.25,0.12c0.07,0.08,0.12,0.18,0.17,0.28c0.05,0.11,0.09,0.22,0.12,0.34c0.03,0.12,0.07,0.23,0.1,0.31
		c0.23,0.58,0.43,1.15,0.62,1.73c0.18,0.58,0.38,1.14,0.59,1.7c0.03,0.07,0.05,0.13,0.05,0.19c0,0.06,0.02,0.12,0.05,0.18
		c0.08,0.18,0.13,0.37,0.15,0.57c0.02,0.2-0.08,0.34-0.3,0.42c-0.13,0.03-0.29,0.05-0.47,0.05h-0.49h-1.88
		c-0.2,0-0.39-0.01-0.58-0.02c-0.19-0.02-0.33-0.08-0.41-0.2C114.09,38.23,114.08,38.08,114.13,37.95z"/>
	<path class="st2" d="M124.92,45.28c0.13,0.08,0.35,0.12,0.65,0.11c0.3-0.01,0.56-0.01,0.78-0.01c0.15,0,0.32,0.01,0.52,0.01
		c0.2,0.01,0.39,0.01,0.58,0.01c0.19,0,0.36-0.01,0.52-0.04c0.16-0.02,0.27-0.07,0.36-0.14c0.13-0.1,0.23-0.24,0.28-0.42
		c0.06-0.18,0.12-0.35,0.19-0.52c0.11-0.3,0.22-0.6,0.31-0.9c0.09-0.3,0.2-0.6,0.33-0.88c0.07-0.16,0.12-0.33,0.17-0.49
		c0.05-0.16,0.14-0.3,0.27-0.4c0.18-0.13,0.43-0.19,0.75-0.18c0.32,0.01,0.62,0.01,0.9,0.01h3.9c0.08,0,0.16,0.01,0.23,0.01
		c0.07,0.01,0.15,0.01,0.23,0.01c0.16,0.03,0.3,0.09,0.4,0.16c0.1,0.07,0.17,0.16,0.22,0.26c0.05,0.1,0.1,0.21,0.14,0.33
		c0.04,0.12,0.09,0.26,0.14,0.41c0.1,0.25,0.19,0.5,0.28,0.77c0.09,0.26,0.18,0.53,0.26,0.79c0.07,0.15,0.12,0.3,0.16,0.45
		c0.04,0.15,0.1,0.29,0.18,0.42c0.08,0.15,0.21,0.25,0.4,0.29c0.1,0.03,0.2,0.05,0.31,0.04c0.11-0.01,0.23-0.01,0.36-0.01h1.16
		c0.2,0,0.45,0.01,0.75,0.03c0.3,0.02,0.52-0.02,0.65-0.1c0.1-0.05,0.16-0.12,0.17-0.22c0.02-0.1,0.01-0.2-0.01-0.31
		c-0.02-0.11-0.06-0.21-0.1-0.31s-0.07-0.18-0.09-0.25c-0.03-0.05-0.05-0.09-0.05-0.14c0-0.04-0.02-0.09-0.05-0.14
		c-0.21-0.51-0.41-1.03-0.59-1.55c-0.18-0.53-0.38-1.05-0.59-1.58c-0.05-0.13-0.09-0.26-0.12-0.38c-0.03-0.12-0.08-0.25-0.15-0.38
		c-0.1-0.26-0.2-0.53-0.3-0.79c-0.1-0.26-0.2-0.53-0.3-0.79c-0.03-0.07-0.05-0.13-0.06-0.18c-0.01-0.06-0.03-0.12-0.06-0.18
		c-0.35-0.82-0.66-1.65-0.95-2.49c-0.29-0.84-0.6-1.67-0.93-2.49c-0.13-0.33-0.26-0.65-0.37-0.98c-0.12-0.32-0.24-0.65-0.37-0.98
		c-0.03-0.1-0.07-0.2-0.1-0.3c-0.03-0.1-0.07-0.2-0.1-0.3c-0.11-0.28-0.22-0.56-0.32-0.83c-0.1-0.27-0.21-0.55-0.32-0.83
		c-0.08-0.2-0.15-0.39-0.21-0.58c-0.06-0.19-0.18-0.33-0.36-0.43c-0.11-0.08-0.27-0.12-0.45-0.11c-0.19,0.01-0.38,0.01-0.56,0.01
		h-2.17c-0.03,0.01-0.07,0.02-0.1,0.01c-0.03-0.01-0.07,0-0.1,0.01c-0.13,0.03-0.24,0.08-0.32,0.12c-0.15,0.11-0.25,0.27-0.31,0.46
		c-0.06,0.19-0.13,0.38-0.21,0.56c-0.15,0.34-0.29,0.7-0.42,1.06c-0.13,0.36-0.26,0.72-0.39,1.06c-0.03,0.08-0.06,0.16-0.08,0.22
		c-0.02,0.07-0.04,0.14-0.07,0.22c-0.38,0.9-0.73,1.82-1.05,2.74c-0.32,0.92-0.67,1.83-1.05,2.74c-0.13,0.33-0.26,0.65-0.37,0.97
		c-0.12,0.32-0.24,0.65-0.37,0.97c-0.13,0.35-0.26,0.7-0.39,1.06c-0.13,0.36-0.26,0.72-0.4,1.06c-0.07,0.13-0.12,0.26-0.15,0.39
		c-0.03,0.13-0.08,0.26-0.15,0.4c-0.15,0.38-0.29,0.77-0.43,1.16c-0.14,0.4-0.29,0.78-0.46,1.16c-0.03,0.07-0.07,0.15-0.1,0.25
		c-0.03,0.1-0.06,0.2-0.09,0.31c-0.02,0.11-0.03,0.21-0.02,0.31C124.79,45.15,124.84,45.23,124.92,45.28z M131.04,37.95
		c0.05-0.18,0.1-0.35,0.15-0.51c0.05-0.16,0.11-0.32,0.17-0.48c0.18-0.48,0.35-0.95,0.51-1.43c0.16-0.48,0.33-0.95,0.53-1.41
		c0.08-0.21,0.15-0.44,0.21-0.67c0.06-0.23,0.15-0.43,0.28-0.59c0.03-0.03,0.07-0.06,0.1-0.07c0.03-0.02,0.07-0.04,0.1-0.07
		c0.1,0,0.18,0.04,0.25,0.12c0.07,0.08,0.12,0.18,0.17,0.28c0.05,0.11,0.09,0.22,0.12,0.34c0.03,0.12,0.07,0.23,0.1,0.31
		c0.23,0.58,0.43,1.15,0.62,1.73c0.18,0.58,0.38,1.14,0.59,1.7c0.03,0.07,0.05,0.13,0.05,0.19c0,0.06,0.02,0.12,0.05,0.18
		c0.08,0.18,0.13,0.37,0.15,0.57c0.02,0.2-0.08,0.34-0.3,0.42c-0.13,0.03-0.29,0.05-0.47,0.05h-0.49h-1.88
		c-0.2,0-0.39-0.01-0.58-0.02c-0.19-0.02-0.33-0.08-0.41-0.2C131,38.23,130.99,38.08,131.04,37.95z"/>
	<path class="st2" d="M153.83,40.46c0.05,0.18,0.09,0.37,0.11,0.56c0.03,0.19,0.05,0.37,0.09,0.56c0,0.1,0.01,0.17,0.02,0.22
		c0.03,0.18,0.05,0.38,0.05,0.61c0,0.22,0.02,0.43,0.07,0.63c0,0.05,0,0.1,0.01,0.16c0.01,0.06,0.01,0.12,0.01,0.19
		c0.07,0.28,0.11,0.58,0.12,0.89c0.02,0.31,0.09,0.58,0.22,0.79c0.1,0.16,0.25,0.26,0.45,0.28c0.2,0.03,0.43,0.04,0.69,0.04h1.36
		c0.18,0,0.36,0.01,0.53,0.01c0.17,0.01,0.31-0.03,0.41-0.11c0.05-0.03,0.09-0.09,0.14-0.17c0.04-0.08,0.05-0.17,0.01-0.27
		c-0.03-0.13-0.07-0.27-0.1-0.42s-0.07-0.3-0.1-0.45l-0.07-0.44c-0.03-0.17-0.05-0.34-0.05-0.52c0-0.18-0.02-0.35-0.05-0.52
		c-0.02-0.08-0.02-0.16-0.01-0.22c0.01-0.07,0-0.13-0.01-0.2c-0.02-0.08-0.02-0.16-0.01-0.23c0.01-0.07,0-0.14-0.01-0.21
		c0-0.1,0-0.19-0.01-0.29c-0.01-0.09-0.01-0.18-0.01-0.28c-0.03-0.15-0.05-0.3-0.06-0.47c-0.01-0.16-0.03-0.32-0.06-0.47
		c-0.1-0.38-0.21-0.72-0.32-1.01c-0.12-0.3-0.27-0.58-0.47-0.86c-0.11-0.18-0.26-0.34-0.42-0.47c-0.17-0.13-0.33-0.26-0.5-0.4
		c-0.05-0.03-0.11-0.08-0.17-0.15c-0.07-0.07-0.08-0.15-0.05-0.25c0.03-0.08,0.08-0.15,0.15-0.21c0.07-0.06,0.13-0.11,0.2-0.16
		c0.11-0.08,0.22-0.17,0.32-0.25c0.1-0.08,0.2-0.16,0.3-0.25c0.07-0.05,0.13-0.11,0.18-0.17c0.06-0.07,0.11-0.13,0.16-0.2
		c0.03-0.05,0.07-0.1,0.12-0.16c0.05-0.06,0.09-0.11,0.12-0.16c0.13-0.2,0.24-0.41,0.32-0.63c0.08-0.22,0.16-0.46,0.25-0.7
		c0.03-0.12,0.05-0.23,0.05-0.33c0-0.11,0.02-0.23,0.05-0.36c0.03-0.11,0.06-0.27,0.07-0.46c0.02-0.19,0.01-0.35-0.02-0.48v-0.22
		c-0.03-0.07-0.05-0.13-0.04-0.2c0.01-0.07,0-0.13-0.01-0.2c-0.08-0.3-0.16-0.57-0.22-0.82c-0.07-0.25-0.16-0.48-0.3-0.72
		c-0.07-0.08-0.12-0.17-0.16-0.26c-0.04-0.09-0.09-0.18-0.16-0.26c-0.23-0.35-0.52-0.65-0.86-0.91c-0.35-0.26-0.72-0.48-1.13-0.67
		c-0.12-0.05-0.23-0.09-0.35-0.12c-0.12-0.03-0.23-0.07-0.35-0.1c-0.08-0.03-0.17-0.05-0.26-0.05c-0.09,0-0.18-0.02-0.26-0.05
		c-0.21-0.05-0.44-0.08-0.68-0.09c-0.24-0.01-0.49-0.01-0.75-0.01h-8.39c-0.03,0.02-0.07,0.02-0.11,0.01
		c-0.04-0.01-0.08,0-0.11,0.01c-0.18,0.07-0.3,0.15-0.37,0.25c-0.08,0.12-0.12,0.27-0.11,0.47c0.01,0.2,0.01,0.39,0.01,0.57v15.01
		v0.65c0,0.22,0.07,0.37,0.2,0.46c0.15,0.12,0.37,0.17,0.67,0.16c0.3-0.01,0.58-0.01,0.84-0.01h1.11h0.37c0.12,0,0.21-0.02,0.3-0.05
		c0.15-0.05,0.25-0.15,0.3-0.29c0.03-0.08,0.05-0.18,0.05-0.28v-0.36c0-0.13,0-0.27,0.01-0.41c0.01-0.14,0.01-0.28,0.01-0.41v-3.16
		c0-0.28-0.01-0.59-0.02-0.94c-0.02-0.35,0.04-0.6,0.17-0.77c0.07-0.08,0.15-0.13,0.25-0.15c0.1-0.02,0.21-0.04,0.35-0.07h2.02h1.15
		c0.39,0,0.73,0.05,1.02,0.15c0.1,0.03,0.19,0.06,0.27,0.07c0.08,0.02,0.16,0.04,0.25,0.07c0.33,0.15,0.58,0.37,0.77,0.67
		C153.54,39.75,153.7,40.08,153.83,40.46z M152.4,35.65c-0.12,0.03-0.24,0.05-0.36,0.05c-0.12,0-0.25,0.02-0.38,0.05h-0.32
		c-0.1,0.03-0.21,0.04-0.35,0.04c-0.13-0.01-0.26-0.01-0.37-0.01h-1.46c-0.15,0-0.32,0-0.52,0.01c-0.2,0.01-0.39,0-0.57-0.01
		c-0.18-0.02-0.35-0.04-0.49-0.07c-0.15-0.03-0.26-0.1-0.32-0.2c-0.08-0.12-0.12-0.27-0.12-0.47v-0.59v-2.3c0-0.2,0-0.4-0.01-0.6
		c-0.01-0.21,0.03-0.37,0.11-0.51c0.07-0.11,0.2-0.2,0.39-0.25c0.03,0,0.07,0.01,0.1,0.01c0.03,0.01,0.07,0,0.1-0.04h2.86
		c0.39,0,0.77,0.01,1.14,0.03c0.36,0.02,0.68,0.09,0.96,0.22c0.53,0.23,0.89,0.6,1.09,1.11c0.03,0.05,0.05,0.1,0.05,0.15
		c0,0.05,0.01,0.11,0.05,0.17c0.03,0.13,0.06,0.33,0.09,0.59c0.02,0.26,0.02,0.49-0.01,0.67c-0.05,0.23-0.1,0.44-0.15,0.62
		c-0.05,0.18-0.12,0.34-0.22,0.49c-0.15,0.22-0.33,0.39-0.54,0.52C152.92,35.46,152.68,35.57,152.4,35.65z"/>
	<path class="st2" d="M159.41,30.76c0.07,0.1,0.16,0.17,0.29,0.22c0.13,0.03,0.31,0.05,0.53,0.04c0.22-0.01,0.42-0.01,0.6-0.01h2.29
		c0.35,0,0.65,0.01,0.9,0.04c0.26,0.03,0.42,0.18,0.51,0.46c0.03,0.07,0.04,0.13,0.02,0.2c-0.02,0.07-0.02,0.14,0,0.22
		c0.03,0.1,0.04,0.21,0.04,0.33c-0.01,0.12-0.01,0.24-0.01,0.36v2.1v6.86v2.47v0.63c0,0.21,0.04,0.37,0.12,0.51
		c0.08,0.1,0.2,0.16,0.36,0.17c0.16,0.02,0.33,0.02,0.51,0.02h1.68h0.42c0.15,0,0.28-0.02,0.4-0.05c0.18-0.08,0.28-0.22,0.31-0.41
		c0.03-0.19,0.04-0.42,0.04-0.68v-2.32v-7.11v-2.2c0-0.1,0-0.21-0.01-0.33c-0.01-0.12,0-0.23,0.01-0.33
		c0.03-0.08,0.04-0.16,0.02-0.22c-0.02-0.07-0.02-0.14,0-0.22c0.08-0.28,0.24-0.43,0.48-0.46c0.24-0.02,0.52-0.04,0.85-0.04h2.52
		c0.35,0,0.64-0.01,0.89-0.02c0.25-0.02,0.41-0.16,0.49-0.44c0.03-0.1,0.04-0.2,0.04-0.31c-0.01-0.11-0.01-0.22-0.01-0.33v-0.96
		v-0.25c0-0.08-0.01-0.16-0.02-0.22v-0.12c-0.02-0.08-0.04-0.16-0.06-0.23c-0.03-0.07-0.06-0.13-0.11-0.16
		c-0.13-0.08-0.3-0.13-0.51-0.13c-0.21-0.01-0.42-0.01-0.63-0.01h-2.52h-9.87h-0.12c-0.13,0.03-0.22,0.07-0.27,0.1
		c-0.13,0.08-0.21,0.21-0.23,0.37c-0.03,0.16-0.04,0.35-0.04,0.57v1.21c0,0.13,0,0.26,0.01,0.4
		C159.33,30.57,159.36,30.68,159.41,30.76z"/>
	<path class="st2" d="M175.73,33.18v9.01v2.15c0,0.18,0.01,0.35,0.03,0.52c0.02,0.16,0.07,0.29,0.15,0.37
		c0.1,0.08,0.23,0.13,0.38,0.15c0.16,0.02,0.32,0.02,0.51,0.02h1.46c0.13,0,0.26,0.01,0.39,0.02c0.13,0.02,0.26,0.01,0.37-0.02
		c0.23-0.07,0.38-0.16,0.45-0.27c0.08-0.13,0.12-0.33,0.11-0.59c-0.01-0.26-0.01-0.5-0.01-0.72v-4.05v-8.57v-2.15
		c0-0.21,0-0.41-0.01-0.59c-0.01-0.18-0.05-0.33-0.14-0.44c-0.08-0.12-0.21-0.18-0.37-0.18c-0.16-0.01-0.34-0.01-0.52-0.01h-2.12
		c-0.03,0-0.07,0-0.11,0.01c-0.04,0.01-0.09,0.01-0.14,0.01c-0.15,0.07-0.26,0.15-0.32,0.25c-0.08,0.13-0.12,0.35-0.11,0.67
		c0.01,0.31,0.01,0.58,0.01,0.81V33.18z"/>
	<path class="st2" d="M109.44,68.11v2.15c0,0.18,0.01,0.35,0.02,0.52c0.02,0.16,0.07,0.29,0.15,0.37c0.1,0.08,0.23,0.13,0.38,0.15
		c0.16,0.02,0.32,0.03,0.51,0.03h1.46c0.13,0,0.26,0.01,0.4,0.02c0.13,0.02,0.26,0.01,0.37-0.02c0.23-0.07,0.38-0.16,0.45-0.27
		c0.08-0.13,0.12-0.33,0.11-0.59c-0.01-0.26-0.01-0.5-0.01-0.72v-4.05v-8.57v-2.15c0-0.21,0-0.41-0.01-0.59
		c-0.01-0.18-0.05-0.33-0.14-0.44c-0.08-0.11-0.21-0.18-0.37-0.18c-0.16-0.01-0.34-0.01-0.52-0.01h-2.12c-0.03,0-0.07,0-0.11,0.01
		c-0.04,0.01-0.09,0.01-0.14,0.01c-0.15,0.07-0.26,0.15-0.32,0.25c-0.08,0.13-0.12,0.35-0.11,0.67c0.01,0.31,0.01,0.58,0.01,0.81
		v3.61V68.11z"/>
	<path class="st2" d="M131.54,71.02c0.07-0.1,0.1-0.24,0.09-0.42c-0.01-0.18-0.01-0.36-0.01-0.54v-2.07V57.64v-2.72
		c0-0.28-0.01-0.52-0.02-0.73c-0.02-0.21-0.13-0.35-0.34-0.43c-0.1-0.03-0.22-0.05-0.35-0.05h-0.4h-1.51
		c-0.18,0-0.34,0.01-0.48,0.03c-0.14,0.02-0.25,0.08-0.33,0.2c-0.1,0.13-0.15,0.31-0.15,0.54v0.27c-0.02,0.07-0.02,0.14-0.01,0.22
		c0.01,0.08,0.01,0.16,0.01,0.25v0.94v5.73v1.56c0,0.13,0.01,0.27,0.01,0.41c0.01,0.14,0,0.27-0.01,0.38
		c-0.03,0.13-0.05,0.26-0.05,0.37s-0.06,0.19-0.17,0.22c-0.05,0.03-0.1,0.03-0.15,0c-0.05-0.03-0.09-0.07-0.12-0.1
		c-0.1-0.08-0.18-0.17-0.23-0.27c-0.06-0.1-0.12-0.2-0.19-0.3c-0.3-0.43-0.58-0.87-0.85-1.32c-0.27-0.45-0.55-0.9-0.83-1.35
		c-0.58-0.94-1.16-1.87-1.74-2.8c-0.58-0.93-1.16-1.86-1.74-2.8l-0.89-1.41c-0.08-0.13-0.17-0.26-0.26-0.39
		c-0.09-0.13-0.22-0.23-0.38-0.3c-0.13-0.07-0.28-0.1-0.46-0.09c-0.17,0.01-0.35,0.01-0.53,0.01h-2c-0.03,0-0.07,0-0.11,0.01
		c-0.04,0.01-0.08,0.01-0.11,0.01c-0.16,0.05-0.28,0.13-0.34,0.25c-0.07,0.11-0.1,0.27-0.1,0.47v0.57v2.3v9.9v2.84
		c0,0.28,0.01,0.53,0.04,0.74s0.14,0.36,0.36,0.44c0.1,0.03,0.22,0.05,0.35,0.05h0.4h1.51c0.18,0,0.34-0.01,0.48-0.03
		c0.14-0.02,0.25-0.07,0.33-0.17c0.08-0.11,0.12-0.3,0.12-0.57v-0.27c0.03-0.08,0.04-0.16,0.04-0.25c-0.01-0.08-0.01-0.16-0.01-0.25
		V68.8v-5.9v-1.73c0-0.23,0-0.42,0.01-0.57c0.01-0.15,0.08-0.28,0.21-0.4c0.18,0,0.33,0.09,0.43,0.26c0.11,0.17,0.2,0.32,0.28,0.43
		c0.23,0.38,0.46,0.74,0.68,1.1c0.22,0.36,0.45,0.72,0.68,1.1l3.7,5.93c0.15,0.23,0.29,0.46,0.43,0.7c0.14,0.24,0.28,0.47,0.43,0.7
		c0.1,0.16,0.2,0.32,0.3,0.46c0.1,0.14,0.24,0.25,0.42,0.33c0.1,0.05,0.22,0.07,0.36,0.07h0.43h1.36h0.86
		c0.13-0.03,0.24-0.06,0.33-0.09C131.39,71.18,131.47,71.12,131.54,71.02z"/>
	<path class="st2" d="M150.59,61.94v-0.27c-0.03-0.08-0.05-0.18-0.04-0.3c0.01-0.12-0.01-0.22-0.04-0.32c0-0.07-0.01-0.13-0.01-0.19
		c-0.01-0.06-0.01-0.13-0.01-0.21c-0.05-0.23-0.09-0.46-0.11-0.69c-0.03-0.23-0.08-0.45-0.16-0.67c-0.13-0.43-0.28-0.84-0.44-1.22
		c-0.16-0.39-0.35-0.75-0.57-1.1c-0.08-0.13-0.18-0.26-0.28-0.38c-0.11-0.12-0.2-0.25-0.28-0.38l-0.22-0.2
		c-0.13-0.16-0.28-0.31-0.44-0.44l-0.15-0.15c-0.35-0.25-0.73-0.5-1.14-0.77c-0.16-0.1-0.34-0.18-0.52-0.25
		c-0.18-0.07-0.36-0.14-0.54-0.22c-0.2-0.08-0.4-0.14-0.62-0.19c-0.21-0.04-0.44-0.09-0.67-0.14c-0.1-0.03-0.19-0.04-0.28-0.03
		c-0.09,0.01-0.18-0.01-0.28-0.04c-0.08-0.03-0.17-0.05-0.27-0.04c-0.1,0.01-0.19,0-0.27-0.04h-0.3c-0.08-0.02-0.18-0.02-0.28-0.01
		c-0.11,0.01-0.21,0.01-0.31,0.01h-6.64c-0.03,0.02-0.07,0.02-0.1,0.01c-0.03-0.01-0.07-0.01-0.1,0.01
		c-0.18,0.07-0.3,0.15-0.37,0.25c-0.08,0.13-0.12,0.31-0.11,0.53c0.01,0.22,0.01,0.43,0.01,0.63v14.49c0,0.18-0.01,0.41-0.01,0.68
		c-0.01,0.27,0.01,0.47,0.06,0.6c0.08,0.2,0.22,0.31,0.41,0.33c0.19,0.02,0.42,0.04,0.7,0.04h5.75c0.15,0,0.32,0.01,0.52,0.03
		c0.2,0.01,0.36,0.01,0.49-0.03c0.03-0.02,0.08-0.02,0.15-0.01c0.06,0.01,0.11,0,0.15-0.01c0.08-0.01,0.16-0.02,0.22-0.01
		c0.07,0.01,0.13,0,0.2-0.01c0.08-0.02,0.16-0.02,0.23-0.02c0.07,0,0.15-0.01,0.23-0.03c0.18-0.05,0.36-0.09,0.53-0.11
		c0.17-0.02,0.34-0.06,0.51-0.11c0.41-0.13,0.79-0.28,1.15-0.44c0.35-0.16,0.7-0.36,1.03-0.59c0.58-0.39,1.07-0.87,1.48-1.43
		c0.41-0.56,0.76-1.18,1.04-1.88c0.1-0.25,0.18-0.5,0.25-0.75c0.07-0.26,0.14-0.52,0.22-0.8c0.05-0.18,0.08-0.36,0.1-0.54
		c0.01-0.18,0.04-0.36,0.07-0.54c0.02-0.08,0.02-0.16,0.01-0.25c-0.01-0.08,0-0.16,0.04-0.25c0-0.1,0-0.2,0.01-0.31
		c0.01-0.11,0.01-0.22,0.01-0.33c0-0.03,0-0.09,0.01-0.17c0.01-0.08,0.01-0.17,0.01-0.27c0-0.1-0.01-0.19-0.01-0.27
		C150.6,62.05,150.59,61.99,150.59,61.94z M146.74,63.12v0.25c-0.03,0.13-0.05,0.26-0.05,0.4s-0.02,0.26-0.05,0.37v0.2
		c-0.05,0.16-0.09,0.33-0.12,0.49c-0.03,0.17-0.08,0.31-0.15,0.45c-0.25,0.61-0.55,1.12-0.9,1.53c-0.35,0.41-0.84,0.74-1.45,0.99
		c-0.46,0.18-1.02,0.28-1.68,0.28c-0.66,0.01-1.31,0.01-1.95,0.01c-0.3,0-0.59,0-0.87-0.01c-0.28-0.01-0.47-0.11-0.57-0.31
		c-0.03-0.08-0.05-0.17-0.06-0.28c-0.01-0.11-0.01-0.22-0.01-0.33V66.9c-0.03-0.08-0.05-0.18-0.04-0.3
		c0.01-0.11,0.01-0.22,0.01-0.32V59.4c0-0.23,0-0.46,0.01-0.69c0.01-0.23,0.01-0.45,0.01-0.67v-0.49c0-0.15,0.03-0.26,0.1-0.35
		c0.05-0.08,0.11-0.14,0.2-0.16c0.08-0.03,0.16-0.05,0.25-0.09c0.05-0.02,0.11-0.02,0.19,0c0.07,0.02,0.13,0.01,0.16-0.03h1.11
		c0.1,0,0.2,0,0.3-0.01c0.1-0.01,0.19,0,0.27,0.01H142c0.05,0.02,0.11,0.02,0.17,0.01c0.07-0.01,0.13,0,0.2,0.01
		c0.13,0.03,0.25,0.05,0.36,0.06c0.11,0.01,0.23,0.02,0.36,0.04c0.15,0.03,0.29,0.07,0.44,0.11c0.15,0.04,0.3,0.09,0.45,0.14
		c0.46,0.2,0.85,0.44,1.17,0.73c0.32,0.29,0.61,0.63,0.85,1.03c0.13,0.21,0.23,0.44,0.31,0.68c0.07,0.24,0.15,0.49,0.23,0.75
		c0.03,0.08,0.04,0.16,0.04,0.23c-0.01,0.07,0,0.15,0.04,0.23c0.03,0.13,0.05,0.28,0.06,0.45c0.01,0.16,0.03,0.32,0.06,0.47v0.47
		c0.03,0.08,0.05,0.21,0.05,0.4C146.79,62.91,146.78,63.04,146.74,63.12z"/>
	<path class="st2" d="M154.47,69.12c0.63,0.9,1.49,1.56,2.59,1.96c1.1,0.4,2.43,0.6,4,0.58c0.23,0,0.47-0.01,0.72-0.03
		c0.25-0.02,0.47-0.04,0.67-0.07c0.1-0.03,0.19-0.05,0.28-0.05c0.09,0,0.18-0.02,0.28-0.05c0.15-0.03,0.3-0.07,0.46-0.1
		c0.16-0.03,0.31-0.07,0.46-0.12c0.69-0.23,1.29-0.53,1.8-0.89c0.58-0.39,1.04-0.88,1.39-1.44c0.35-0.57,0.65-1.24,0.88-2.01
		c0.13-0.48,0.2-1.01,0.22-1.61c0.02-0.59,0.02-1.2,0.02-1.83v-4.98v-3.31c0-0.2,0.01-0.41,0.01-0.65c0.01-0.24-0.03-0.42-0.11-0.55
		c-0.07-0.11-0.21-0.2-0.44-0.25c-0.12-0.03-0.24-0.05-0.36-0.04c-0.12,0.01-0.25,0.01-0.38,0.01h-1.58c-0.18,0-0.35,0.01-0.49,0.04
		c-0.15,0.03-0.26,0.09-0.35,0.18c-0.1,0.13-0.14,0.34-0.14,0.62c0.01,0.28,0.01,0.53,0.01,0.77v3.31v4.91
		c0,0.62-0.02,1.23-0.05,1.81c-0.03,0.58-0.14,1.09-0.32,1.52c-0.13,0.28-0.31,0.53-0.53,0.75c-0.22,0.22-0.48,0.4-0.78,0.53
		c-0.13,0.07-0.31,0.12-0.54,0.17c-0.11,0.03-0.24,0.06-0.37,0.07c-0.13,0.02-0.26,0.04-0.39,0.07h-0.37
		c-0.05,0.02-0.15,0.03-0.3,0.04c-0.15,0.01-0.26,0.01-0.32-0.01c-0.08-0.02-0.16-0.02-0.22-0.01c-0.07,0.01-0.14,0-0.22-0.04
		c-0.13-0.03-0.26-0.06-0.4-0.07c-0.13-0.01-0.26-0.04-0.39-0.07c-0.48-0.16-0.86-0.39-1.15-0.67c-0.29-0.28-0.52-0.63-0.7-1.06
		c-0.07-0.18-0.11-0.36-0.14-0.54c-0.02-0.18-0.05-0.36-0.09-0.54c-0.02-0.07-0.02-0.16-0.02-0.27c-0.03-0.13-0.05-0.28-0.04-0.44
		c0.01-0.16,0.01-0.32,0.01-0.47v-0.4c-0.02-0.07-0.02-0.14-0.01-0.21c0.01-0.07,0.01-0.14,0.01-0.21v-0.86v-5.08v-2.49
		c0-0.22,0-0.42-0.01-0.63c-0.01-0.21-0.05-0.37-0.14-0.51c-0.08-0.1-0.21-0.16-0.38-0.17c-0.17-0.02-0.35-0.03-0.53-0.03h-2.1
		c-0.03,0.02-0.07,0.03-0.1,0.03h-0.1c-0.16,0.05-0.29,0.13-0.39,0.25c-0.05,0.1-0.07,0.23-0.07,0.38v0.48v1.73v6.89v1.73
		c0,0.58,0.07,1.1,0.2,1.55c0.03,0.08,0.05,0.15,0.05,0.21c0,0.06,0.02,0.13,0.05,0.21c0.12,0.38,0.24,0.73,0.38,1.05
		C154.08,68.52,154.26,68.83,154.47,69.12z"/>
	<path class="st2" d="M176.47,71.63c0.07,0.01,0.14,0.01,0.22,0.01c0.1,0.03,0.21,0.04,0.33,0.04c0.12-0.01,0.24,0,0.36,0.04h0.25
		c0.08,0.02,0.22,0.03,0.42,0.03c0.2,0,0.34-0.01,0.42-0.03c0.03-0.02,0.08-0.02,0.14-0.01c0.06,0.01,0.1,0.01,0.14,0.01h0.2
		c0.1-0.03,0.2-0.05,0.31-0.04c0.11,0.01,0.22,0,0.33-0.04c0.25-0.05,0.49-0.09,0.74-0.11c0.25-0.02,0.49-0.08,0.72-0.16
		c0.33-0.11,0.65-0.23,0.95-0.35c0.3-0.11,0.6-0.26,0.88-0.44c0.1-0.07,0.19-0.13,0.29-0.2c0.09-0.07,0.18-0.13,0.26-0.2
		c0.11-0.08,0.22-0.17,0.32-0.26c0.1-0.09,0.19-0.18,0.27-0.28c0.05-0.08,0.11-0.15,0.17-0.21c0.07-0.06,0.13-0.13,0.2-0.21
		c0.16-0.23,0.3-0.47,0.42-0.72c0.11-0.25,0.22-0.52,0.32-0.81c0.05-0.17,0.09-0.33,0.11-0.49c0.03-0.16,0.05-0.34,0.09-0.52v-0.45
		c0.03-0.08,0.03-0.16,0-0.25c0-0.39-0.03-0.72-0.1-0.99c-0.02-0.03-0.03-0.07-0.03-0.11c0-0.04-0.01-0.09-0.02-0.14
		c-0.07-0.16-0.13-0.33-0.18-0.49c-0.06-0.16-0.13-0.31-0.21-0.45c-0.28-0.45-0.58-0.81-0.9-1.09c-0.32-0.28-0.7-0.56-1.15-0.84
		c-0.28-0.18-0.6-0.32-0.95-0.42c-0.35-0.1-0.7-0.21-1.02-0.32c-0.08-0.03-0.17-0.05-0.25-0.05c-0.08,0-0.16-0.02-0.25-0.05
		c-0.46-0.13-0.93-0.25-1.39-0.36c-0.47-0.11-0.92-0.23-1.37-0.38c-0.2-0.07-0.39-0.12-0.58-0.16c-0.19-0.04-0.38-0.1-0.56-0.18
		c-0.33-0.13-0.61-0.27-0.85-0.41c-0.24-0.14-0.42-0.38-0.55-0.73c-0.03-0.08-0.06-0.19-0.08-0.33c-0.02-0.14-0.01-0.27,0.02-0.38
		c0.08-0.44,0.23-0.78,0.43-1c0.21-0.22,0.5-0.42,0.88-0.58c0.23-0.1,0.49-0.16,0.79-0.2c0.3-0.03,0.6-0.04,0.9-0.02
		c0.3,0.02,0.6,0.05,0.89,0.11c0.29,0.06,0.53,0.13,0.73,0.21c0.21,0.12,0.43,0.26,0.67,0.42c0.13,0.1,0.25,0.24,0.37,0.42
		c0.11,0.18,0.2,0.35,0.27,0.52c0.08,0.18,0.15,0.36,0.2,0.54c0.05,0.18,0.17,0.31,0.37,0.4c0.1,0.03,0.22,0.05,0.37,0.05h0.45h1.55
		c0.18,0,0.34-0.01,0.49-0.04c0.15-0.03,0.26-0.09,0.35-0.19c0.07-0.08,0.1-0.21,0.11-0.38c0.01-0.17-0.01-0.32-0.04-0.46
		c-0.08-0.33-0.17-0.63-0.26-0.91c-0.09-0.28-0.22-0.55-0.38-0.81c-1.2-1.94-3.4-2.89-6.59-2.84c-0.03,0.03-0.1,0.04-0.21,0.02
		c-0.11-0.02-0.18-0.02-0.23,0c-0.16,0.03-0.33,0.05-0.48,0.06c-0.16,0.01-0.32,0.03-0.48,0.06c-0.43,0.1-0.83,0.21-1.21,0.32
		s-0.73,0.27-1.06,0.47c-0.51,0.33-0.96,0.7-1.35,1.1c-0.39,0.4-0.7,0.89-0.95,1.47c-0.07,0.16-0.11,0.33-0.15,0.49
		c-0.03,0.17-0.07,0.34-0.12,0.52c0,0.13-0.01,0.23-0.02,0.3c-0.03,0.18-0.04,0.41-0.03,0.69c0.02,0.28,0.04,0.49,0.07,0.64
		c0.05,0.18,0.09,0.35,0.12,0.51c0.03,0.16,0.08,0.31,0.15,0.46c0.18,0.43,0.43,0.81,0.74,1.14c0.31,0.33,0.66,0.62,1.04,0.86
		c0.3,0.18,0.62,0.34,0.96,0.48c0.34,0.14,0.71,0.27,1.09,0.41c0.13,0.03,0.25,0.07,0.36,0.1c0.11,0.03,0.23,0.07,0.36,0.1
		c0.07,0.03,0.12,0.05,0.17,0.05c0.05,0,0.12,0.02,0.2,0.05c0.25,0.08,0.51,0.15,0.78,0.21c0.27,0.06,0.54,0.13,0.8,0.21
		c0.13,0.03,0.25,0.06,0.36,0.09c0.11,0.02,0.22,0.05,0.33,0.09c0.3,0.1,0.6,0.19,0.9,0.28c0.3,0.09,0.58,0.21,0.83,0.36
		c0.13,0.07,0.22,0.12,0.27,0.15c0.4,0.25,0.67,0.59,0.84,1.04c0.03,0.08,0.06,0.2,0.09,0.35c0.03,0.15,0.02,0.28-0.01,0.4
		c-0.13,0.58-0.36,0.99-0.69,1.23c-0.33,0.25-0.77,0.44-1.33,0.59c-0.08,0.03-0.17,0.05-0.26,0.06c-0.09,0.01-0.18,0.02-0.26,0.04
		c-0.11,0-0.2,0.01-0.25,0.03c-0.13,0.03-0.31,0.05-0.54,0.05c-0.23,0-0.41-0.02-0.54-0.05h-0.12c-0.13-0.03-0.25-0.05-0.36-0.05
		c-0.11,0-0.22-0.02-0.33-0.05c-0.53-0.15-0.97-0.34-1.33-0.57c-0.1-0.07-0.2-0.14-0.3-0.22c-0.1-0.08-0.19-0.17-0.27-0.27
		c-0.12-0.15-0.22-0.3-0.32-0.47c-0.1-0.16-0.18-0.35-0.25-0.54c-0.08-0.2-0.14-0.39-0.17-0.58c-0.03-0.19-0.14-0.32-0.32-0.41
		c-0.12-0.05-0.25-0.07-0.4-0.07h-0.42h-1.55c-0.2,0-0.38,0.01-0.53,0.04c-0.16,0.02-0.27,0.1-0.36,0.23
		c-0.08,0.1-0.11,0.24-0.1,0.43c0.02,0.19,0.04,0.35,0.07,0.48c0.03,0.11,0.05,0.22,0.06,0.32c0.01,0.1,0.03,0.2,0.06,0.29
		c0.15,0.54,0.35,1.01,0.62,1.41c0.41,0.66,0.92,1.19,1.53,1.59c0.61,0.4,1.32,0.74,2.12,1c0.18,0.07,0.38,0.11,0.59,0.15
		c0.21,0.03,0.42,0.07,0.62,0.12C176.33,71.61,176.4,71.62,176.47,71.63z"/>
	<path class="st2" d="M194.24,71.3h0.42c0.15,0,0.28-0.02,0.4-0.05c0.18-0.08,0.28-0.22,0.31-0.41c0.03-0.19,0.04-0.42,0.04-0.68
		v-2.32v-7.11v-2.2c0-0.1,0-0.21-0.01-0.33c-0.01-0.12,0-0.23,0.01-0.33c0.03-0.08,0.04-0.16,0.02-0.22c-0.02-0.07-0.02-0.14,0-0.22
		c0.08-0.28,0.24-0.43,0.48-0.46c0.24-0.03,0.52-0.04,0.85-0.04h2.52c0.35,0,0.64-0.01,0.89-0.03c0.25-0.02,0.41-0.16,0.49-0.44
		c0.03-0.1,0.04-0.2,0.04-0.31c-0.01-0.11-0.01-0.22-0.01-0.33v-0.96v-0.25c0-0.08-0.01-0.16-0.02-0.22v-0.12
		c-0.02-0.08-0.04-0.16-0.06-0.23c-0.03-0.07-0.06-0.13-0.11-0.16c-0.13-0.08-0.3-0.13-0.51-0.14c-0.21-0.01-0.42-0.01-0.63-0.01
		h-2.52h-9.87h-0.12c-0.13,0.03-0.22,0.07-0.27,0.1c-0.13,0.08-0.21,0.2-0.23,0.37c-0.03,0.16-0.04,0.35-0.04,0.57v1.21
		c0,0.13,0,0.26,0.01,0.4c0.01,0.13,0.04,0.24,0.09,0.32c0.07,0.1,0.16,0.17,0.29,0.22c0.13,0.03,0.31,0.05,0.53,0.04
		c0.22-0.01,0.42-0.01,0.6-0.01h2.29c0.35,0,0.65,0.01,0.9,0.04s0.42,0.18,0.51,0.46c0.03,0.07,0.04,0.13,0.02,0.2
		c-0.02,0.07-0.02,0.14,0,0.22c0.03,0.1,0.04,0.21,0.04,0.33c-0.01,0.12-0.01,0.24-0.01,0.36v2.1v6.86v2.47v0.63
		c0,0.2,0.04,0.37,0.12,0.51c0.08,0.1,0.2,0.16,0.36,0.17c0.16,0.02,0.33,0.03,0.51,0.03H194.24z"/>
	<path class="st2" d="M217.47,70.33c-0.03-0.15-0.07-0.3-0.1-0.45l-0.07-0.44c-0.03-0.16-0.05-0.34-0.05-0.52
		c0-0.18-0.02-0.35-0.05-0.52c-0.02-0.08-0.02-0.16-0.01-0.22c0.01-0.07,0-0.13-0.01-0.2c-0.02-0.08-0.02-0.16-0.01-0.24
		c0.01-0.07,0-0.14-0.01-0.21c0-0.1,0-0.19-0.01-0.28c-0.01-0.09-0.01-0.18-0.01-0.28c-0.03-0.15-0.05-0.3-0.06-0.47
		c-0.01-0.16-0.03-0.32-0.06-0.47c-0.1-0.38-0.21-0.71-0.32-1.01c-0.12-0.3-0.27-0.58-0.47-0.86c-0.11-0.18-0.26-0.34-0.42-0.47
		c-0.17-0.13-0.33-0.26-0.49-0.4c-0.05-0.03-0.11-0.08-0.17-0.15c-0.07-0.07-0.08-0.15-0.05-0.25c0.03-0.08,0.08-0.15,0.15-0.21
		c0.07-0.06,0.13-0.11,0.2-0.16c0.11-0.08,0.22-0.16,0.32-0.25c0.1-0.08,0.2-0.16,0.3-0.25c0.07-0.05,0.13-0.11,0.19-0.17
		c0.06-0.07,0.11-0.13,0.16-0.2c0.03-0.05,0.07-0.1,0.12-0.16c0.05-0.06,0.09-0.11,0.12-0.16c0.13-0.2,0.24-0.41,0.32-0.63
		c0.08-0.22,0.16-0.46,0.25-0.7c0.03-0.12,0.05-0.23,0.05-0.33c0-0.11,0.02-0.23,0.05-0.36c0.03-0.11,0.06-0.27,0.07-0.46
		c0.02-0.19,0.01-0.35-0.02-0.48v-0.22c-0.03-0.07-0.05-0.13-0.04-0.2c0.01-0.07,0-0.13-0.01-0.2c-0.08-0.3-0.16-0.57-0.22-0.82
		c-0.07-0.25-0.17-0.48-0.3-0.71c-0.07-0.08-0.12-0.17-0.16-0.26c-0.04-0.09-0.09-0.18-0.16-0.26c-0.23-0.35-0.52-0.65-0.86-0.91
		s-0.72-0.49-1.14-0.67c-0.12-0.05-0.23-0.09-0.35-0.12c-0.12-0.03-0.23-0.07-0.35-0.1c-0.08-0.03-0.17-0.05-0.26-0.05
		c-0.09,0-0.18-0.02-0.26-0.05c-0.21-0.05-0.44-0.08-0.68-0.09c-0.24-0.01-0.49-0.01-0.75-0.01h-8.39
		c-0.03,0.02-0.07,0.02-0.11,0.01c-0.04-0.01-0.08,0-0.11,0.01c-0.18,0.07-0.3,0.15-0.37,0.25c-0.08,0.11-0.12,0.27-0.11,0.47
		c0.01,0.2,0.01,0.39,0.01,0.57v15.01v0.65c0,0.22,0.07,0.38,0.2,0.46c0.15,0.12,0.37,0.17,0.67,0.16c0.3-0.01,0.57-0.01,0.84-0.01
		h1.11h0.37c0.12,0,0.22-0.02,0.3-0.05c0.15-0.05,0.25-0.15,0.3-0.3c0.03-0.08,0.05-0.18,0.05-0.28v-0.36c0-0.13,0-0.27,0.01-0.41
		c0.01-0.14,0.01-0.27,0.01-0.41v-3.16c0-0.28-0.01-0.59-0.02-0.94c-0.02-0.35,0.04-0.6,0.17-0.77c0.07-0.08,0.15-0.13,0.25-0.15
		c0.1-0.02,0.21-0.04,0.35-0.07h2.02h1.15c0.39,0,0.73,0.05,1.02,0.15c0.1,0.03,0.19,0.06,0.27,0.07c0.08,0.02,0.16,0.04,0.25,0.07
		c0.33,0.15,0.58,0.37,0.77,0.67c0.18,0.3,0.34,0.63,0.47,1.01c0.05,0.18,0.09,0.37,0.11,0.55c0.02,0.19,0.05,0.38,0.09,0.56
		c0,0.1,0.01,0.17,0.02,0.22c0.03,0.18,0.05,0.38,0.05,0.61c0,0.22,0.02,0.43,0.07,0.63c0,0.05,0,0.1,0.01,0.16
		c0.01,0.06,0.01,0.12,0.01,0.18c0.07,0.28,0.11,0.58,0.12,0.89c0.02,0.31,0.09,0.58,0.22,0.79c0.1,0.17,0.25,0.26,0.45,0.28
		c0.2,0.03,0.43,0.04,0.69,0.04h1.36c0.18,0,0.36,0,0.53,0.01c0.17,0.01,0.31-0.03,0.41-0.11c0.05-0.03,0.09-0.09,0.13-0.17
		c0.04-0.08,0.05-0.17,0.01-0.27C217.53,70.62,217.5,70.48,217.47,70.33z M213.49,59.62c-0.05,0.23-0.1,0.44-0.15,0.62
		c-0.05,0.18-0.12,0.35-0.22,0.49c-0.15,0.21-0.33,0.39-0.54,0.52c-0.21,0.13-0.46,0.24-0.74,0.32c-0.12,0.03-0.23,0.05-0.36,0.05
		c-0.12,0-0.25,0.02-0.38,0.05h-0.32c-0.1,0.03-0.21,0.04-0.35,0.04c-0.13-0.01-0.26-0.01-0.37-0.01h-1.46c-0.15,0-0.32,0-0.52,0.01
		c-0.2,0.01-0.39,0-0.57-0.01c-0.18-0.02-0.35-0.04-0.49-0.08c-0.15-0.03-0.26-0.1-0.32-0.2c-0.08-0.12-0.12-0.27-0.12-0.47v-0.59
		v-2.3c0-0.2,0-0.4-0.01-0.6c-0.01-0.21,0.03-0.37,0.11-0.51c0.07-0.11,0.2-0.2,0.4-0.25c0.03,0,0.07,0.01,0.1,0.01
		c0.03,0.01,0.07,0,0.1-0.04h2.86c0.4,0,0.77,0.01,1.14,0.02c0.36,0.02,0.68,0.09,0.96,0.22c0.53,0.23,0.89,0.6,1.09,1.11
		c0.03,0.05,0.05,0.1,0.05,0.15c0,0.05,0.02,0.11,0.05,0.17c0.03,0.13,0.06,0.33,0.09,0.59C213.53,59.22,213.53,59.44,213.49,59.62z
		"/>
	<path class="st2" d="M224.35,65.69v-8.57v-2.15c0-0.21,0-0.41-0.01-0.59c-0.01-0.18-0.05-0.33-0.14-0.44
		c-0.08-0.11-0.21-0.18-0.37-0.18c-0.16-0.01-0.34-0.01-0.52-0.01h-2.12c-0.03,0-0.07,0-0.11,0.01c-0.04,0.01-0.09,0.01-0.14,0.01
		c-0.15,0.07-0.26,0.15-0.32,0.25c-0.08,0.13-0.12,0.35-0.11,0.67c0.01,0.31,0.01,0.58,0.01,0.81v3.61v9.01v2.15
		c0,0.18,0.01,0.35,0.03,0.52c0.02,0.16,0.07,0.29,0.15,0.37c0.1,0.08,0.23,0.13,0.38,0.15c0.16,0.02,0.32,0.03,0.51,0.03h1.46
		c0.13,0,0.26,0.01,0.39,0.02c0.13,0.02,0.26,0.01,0.37-0.02c0.23-0.07,0.38-0.16,0.45-0.27c0.08-0.13,0.12-0.33,0.11-0.59
		c-0.01-0.26-0.01-0.5-0.01-0.72V65.69z"/>
	<path class="st2" d="M241.09,68.43c-0.05-0.13-0.14-0.22-0.27-0.27c-0.1-0.05-0.21-0.07-0.33-0.07h-0.38h-1.31h-4.64h-1.04
		c-0.08,0-0.17,0.01-0.27,0.01c-0.1,0.01-0.19,0.01-0.27-0.01h-0.25c-0.08-0.03-0.16-0.05-0.23-0.06c-0.07-0.01-0.14-0.04-0.18-0.08
		c-0.11-0.08-0.18-0.2-0.21-0.36c-0.02-0.16-0.04-0.33-0.04-0.53v-1.38v-0.94v-0.26c0-0.09,0.01-0.18,0.03-0.26
		c0.05-0.15,0.13-0.26,0.23-0.33c0.11-0.07,0.24-0.12,0.39-0.15c0.16-0.02,0.33-0.03,0.51-0.02c0.18,0.01,0.37,0.01,0.57,0.01h4.82
		c0.11,0,0.26,0,0.43,0.01c0.17,0.01,0.34,0.01,0.52,0.01c0.17,0,0.33-0.01,0.47-0.02c0.14-0.02,0.25-0.05,0.33-0.1
		c0.1-0.08,0.16-0.19,0.2-0.32c0.03-0.08,0.05-0.18,0.05-0.29v-0.35c0-0.13,0.01-0.29,0.01-0.47c0.01-0.18,0.01-0.36,0-0.53
		c-0.01-0.17-0.03-0.33-0.06-0.48s-0.09-0.25-0.17-0.3c-0.07-0.05-0.17-0.08-0.31-0.1c-0.14-0.02-0.29-0.03-0.46-0.04
		c-0.17-0.01-0.33-0.01-0.51,0c-0.17,0.01-0.32,0.01-0.43,0.01h-4.25h-1.33c-0.15,0-0.29,0-0.42-0.01
		c-0.13-0.01-0.25-0.04-0.35-0.11c-0.08-0.05-0.14-0.12-0.17-0.21c-0.03-0.09-0.07-0.2-0.1-0.33v-0.72v-1.41
		c0-0.2,0.01-0.37,0.04-0.53c0.03-0.16,0.1-0.28,0.21-0.36c0.07-0.05,0.17-0.09,0.32-0.11c0.15-0.03,0.31-0.04,0.48-0.05
		c0.17-0.01,0.35-0.01,0.52,0c0.17,0.01,0.33,0.01,0.46,0.01h4.47h1.7h0.47c0.15,0,0.27-0.03,0.37-0.1c0.12-0.07,0.2-0.2,0.25-0.39
		c0-0.16,0.01-0.29,0.03-0.37c0.02-0.12,0.02-0.23,0.01-0.36c-0.01-0.12-0.01-0.25-0.01-0.38c0-0.11,0-0.24,0.01-0.37
		c0.01-0.13,0-0.26-0.01-0.37v-0.27c-0.03-0.07-0.05-0.13-0.06-0.2c-0.01-0.07-0.03-0.12-0.06-0.17c-0.08-0.11-0.22-0.18-0.4-0.2
		c-0.18-0.02-0.37-0.03-0.57-0.03h-2.15h-9.23c-0.03,0.02-0.07,0.02-0.1,0.01c-0.03-0.01-0.06,0-0.1,0.01
		c-0.18,0.05-0.3,0.13-0.37,0.25c-0.07,0.08-0.1,0.2-0.1,0.35v0.44v1.53v5.38v6.71v1.78v0.46c0,0.16,0.03,0.28,0.1,0.38
		c0.08,0.13,0.21,0.21,0.38,0.23c0.17,0.02,0.37,0.04,0.61,0.04h1.95h7.31h1.85h0.51c0.16,0,0.28-0.04,0.38-0.12
		c0.13-0.08,0.21-0.21,0.22-0.38c0.02-0.17,0.03-0.36,0.03-0.55V69.1c0-0.13-0.01-0.26-0.01-0.37
		C241.14,68.61,241.12,68.51,241.09,68.43z"/>
	<path class="st2" d="M257.41,65c-0.02-0.03-0.02-0.07-0.02-0.11c0-0.04-0.01-0.09-0.03-0.14c-0.07-0.16-0.13-0.33-0.18-0.49
		c-0.06-0.16-0.13-0.31-0.21-0.45c-0.28-0.45-0.58-0.81-0.9-1.09c-0.32-0.28-0.7-0.56-1.15-0.84c-0.28-0.18-0.6-0.32-0.95-0.42
		c-0.35-0.1-0.7-0.21-1.02-0.32c-0.08-0.03-0.16-0.05-0.25-0.05c-0.08,0-0.16-0.02-0.25-0.05c-0.46-0.13-0.93-0.25-1.4-0.36
		c-0.47-0.11-0.92-0.23-1.37-0.38c-0.2-0.07-0.39-0.12-0.58-0.16c-0.19-0.04-0.38-0.1-0.56-0.18c-0.33-0.13-0.61-0.27-0.85-0.41
		c-0.24-0.14-0.42-0.38-0.55-0.73c-0.03-0.08-0.06-0.19-0.07-0.33c-0.02-0.14-0.01-0.27,0.02-0.38c0.08-0.44,0.23-0.78,0.43-1
		c0.21-0.22,0.5-0.42,0.88-0.58c0.23-0.1,0.49-0.16,0.79-0.2c0.29-0.03,0.6-0.04,0.9-0.02c0.3,0.02,0.6,0.05,0.89,0.11
		c0.29,0.06,0.53,0.13,0.73,0.21c0.21,0.12,0.43,0.26,0.67,0.42c0.13,0.1,0.25,0.24,0.37,0.42c0.11,0.18,0.21,0.35,0.27,0.52
		c0.08,0.18,0.15,0.36,0.2,0.54c0.05,0.18,0.17,0.31,0.37,0.4c0.1,0.03,0.22,0.05,0.37,0.05h0.45h1.55c0.18,0,0.34-0.01,0.49-0.04
		c0.15-0.03,0.26-0.09,0.34-0.19c0.07-0.08,0.1-0.21,0.11-0.38c0.01-0.17-0.01-0.32-0.04-0.46c-0.08-0.33-0.17-0.63-0.26-0.91
		c-0.09-0.28-0.22-0.55-0.38-0.81c-1.2-1.94-3.4-2.89-6.59-2.84c-0.03,0.03-0.1,0.04-0.21,0.02c-0.11-0.02-0.18-0.02-0.23,0
		c-0.16,0.03-0.33,0.05-0.48,0.06c-0.16,0.01-0.32,0.03-0.48,0.06c-0.43,0.1-0.83,0.21-1.21,0.32c-0.38,0.11-0.73,0.27-1.06,0.47
		c-0.51,0.33-0.96,0.7-1.34,1.1c-0.39,0.4-0.7,0.89-0.95,1.47c-0.07,0.16-0.11,0.33-0.15,0.49c-0.03,0.17-0.07,0.34-0.12,0.52
		c0,0.13-0.01,0.23-0.03,0.3c-0.03,0.18-0.04,0.41-0.03,0.69c0.02,0.28,0.04,0.49,0.07,0.64c0.05,0.18,0.09,0.35,0.12,0.51
		c0.03,0.16,0.08,0.31,0.15,0.46c0.18,0.43,0.43,0.81,0.74,1.14c0.31,0.33,0.66,0.62,1.04,0.86c0.3,0.18,0.62,0.34,0.96,0.48
		c0.35,0.14,0.71,0.27,1.09,0.41c0.13,0.03,0.25,0.07,0.36,0.1c0.11,0.03,0.23,0.07,0.36,0.1c0.07,0.03,0.12,0.05,0.17,0.05
		c0.05,0,0.12,0.02,0.2,0.05c0.25,0.08,0.51,0.15,0.78,0.21c0.27,0.06,0.54,0.13,0.8,0.21c0.13,0.03,0.25,0.06,0.36,0.09
		c0.11,0.02,0.22,0.05,0.33,0.09c0.3,0.1,0.6,0.19,0.9,0.28c0.3,0.09,0.58,0.21,0.83,0.36c0.13,0.07,0.22,0.12,0.27,0.15
		c0.4,0.25,0.68,0.59,0.84,1.04c0.03,0.08,0.06,0.2,0.09,0.35c0.02,0.15,0.02,0.28-0.01,0.4c-0.13,0.58-0.36,0.99-0.69,1.23
		c-0.33,0.25-0.77,0.44-1.33,0.59c-0.08,0.03-0.17,0.05-0.26,0.06c-0.09,0.01-0.18,0.02-0.26,0.04c-0.11,0-0.2,0.01-0.25,0.03
		c-0.13,0.03-0.31,0.05-0.54,0.05c-0.23,0-0.41-0.02-0.54-0.05h-0.12c-0.13-0.03-0.25-0.05-0.36-0.05c-0.11,0-0.22-0.02-0.33-0.05
		c-0.53-0.15-0.97-0.34-1.33-0.57c-0.1-0.07-0.2-0.14-0.3-0.22c-0.1-0.08-0.19-0.17-0.27-0.27c-0.12-0.15-0.22-0.3-0.32-0.47
		c-0.1-0.16-0.18-0.35-0.25-0.54c-0.08-0.2-0.14-0.39-0.17-0.58c-0.03-0.19-0.14-0.32-0.32-0.41c-0.12-0.05-0.25-0.07-0.39-0.07
		h-0.42h-1.55c-0.2,0-0.38,0.01-0.53,0.04c-0.16,0.02-0.28,0.1-0.36,0.23c-0.08,0.1-0.11,0.24-0.1,0.43
		c0.02,0.19,0.04,0.35,0.07,0.48c0.03,0.11,0.05,0.22,0.06,0.32c0.01,0.1,0.03,0.2,0.06,0.29c0.15,0.54,0.35,1.01,0.62,1.41
		c0.41,0.66,0.92,1.19,1.53,1.59c0.61,0.4,1.32,0.74,2.12,1c0.18,0.07,0.38,0.11,0.59,0.15c0.21,0.03,0.42,0.07,0.62,0.12
		c0.08,0.02,0.16,0.03,0.22,0.04c0.07,0.01,0.14,0.01,0.22,0.01c0.1,0.03,0.21,0.04,0.33,0.04c0.12-0.01,0.24,0,0.36,0.04h0.25
		c0.08,0.02,0.22,0.03,0.42,0.03c0.2,0,0.34-0.01,0.42-0.03c0.03-0.02,0.08-0.02,0.14-0.01c0.06,0.01,0.1,0.01,0.14,0.01h0.2
		c0.1-0.03,0.2-0.05,0.31-0.04c0.11,0.01,0.22,0,0.33-0.04c0.25-0.05,0.49-0.09,0.74-0.11c0.25-0.02,0.48-0.08,0.72-0.16
		c0.33-0.11,0.65-0.23,0.95-0.35c0.3-0.11,0.6-0.26,0.88-0.44c0.1-0.07,0.19-0.13,0.28-0.2c0.09-0.07,0.18-0.13,0.26-0.2
		c0.11-0.08,0.22-0.17,0.32-0.26c0.1-0.09,0.19-0.18,0.27-0.28c0.05-0.08,0.11-0.15,0.17-0.21c0.07-0.06,0.13-0.13,0.2-0.21
		c0.16-0.23,0.3-0.47,0.42-0.72c0.11-0.25,0.22-0.52,0.32-0.81c0.05-0.17,0.09-0.33,0.11-0.49c0.02-0.16,0.05-0.34,0.09-0.52v-0.45
		c0.03-0.08,0.03-0.16,0-0.25C257.51,65.59,257.47,65.26,257.41,65z"/>
	<path class="st2" d="M121.89,95.04v-0.47c0-0.15-0.04-0.27-0.12-0.37c-0.05-0.07-0.15-0.11-0.31-0.15
		c-0.16-0.03-0.32-0.05-0.51-0.06c-0.18-0.01-0.37-0.01-0.57,0c-0.2,0.01-0.36,0.01-0.49,0.01h-4.79h-1.01
		c-0.35,0-0.58-0.11-0.69-0.32c-0.03-0.08-0.05-0.18-0.06-0.28c-0.01-0.11-0.01-0.22-0.01-0.33v-0.25
		c-0.03-0.11-0.05-0.23-0.04-0.36c0.01-0.12,0.01-0.25,0.01-0.38v-1.46v-7.48V80.9v-0.6c0-0.19-0.04-0.34-0.12-0.46
		c-0.08-0.11-0.21-0.18-0.38-0.19c-0.17-0.01-0.35-0.01-0.53-0.01h-2.1c-0.03,0.02-0.07,0.02-0.1,0.01c-0.03-0.01-0.06,0-0.1,0.01
		c-0.2,0.05-0.33,0.13-0.39,0.25c-0.05,0.08-0.08,0.2-0.09,0.35c-0.01,0.15-0.01,0.3-0.01,0.44v1.55v5.58v6.54v1.73v0.46
		c0,0.16,0.03,0.28,0.1,0.38c0.08,0.13,0.21,0.21,0.38,0.24c0.17,0.02,0.37,0.04,0.6,0.04h1.78h6.69h1.75h0.47
		c0.16,0,0.29-0.03,0.37-0.1c0.1-0.05,0.18-0.14,0.25-0.27c0.03-0.08,0.04-0.18,0.04-0.29c-0.01-0.12-0.01-0.24-0.01-0.37V95.04z"/>
	<path class="st2" d="M127.91,91.61v-8.57V80.9c0-0.21,0-0.41-0.01-0.59c-0.01-0.18-0.05-0.33-0.14-0.44
		c-0.08-0.11-0.2-0.18-0.37-0.19c-0.16-0.01-0.34-0.01-0.52-0.01h-2.12c-0.03,0-0.07,0-0.11,0.01c-0.04,0.01-0.09,0.01-0.14,0.01
		c-0.15,0.07-0.26,0.15-0.32,0.25c-0.08,0.13-0.12,0.35-0.11,0.67c0.01,0.31,0.01,0.58,0.01,0.81v3.6v9.01v2.15
		c0,0.18,0.01,0.35,0.02,0.52c0.02,0.16,0.07,0.29,0.15,0.37c0.1,0.08,0.23,0.13,0.38,0.15c0.16,0.02,0.32,0.03,0.51,0.03h1.46
		c0.13,0,0.26,0.01,0.4,0.02c0.13,0.02,0.26,0.01,0.37-0.02c0.23-0.07,0.38-0.16,0.45-0.27c0.08-0.13,0.12-0.33,0.11-0.59
		c-0.01-0.26-0.01-0.5-0.01-0.72V91.61z"/>
	<path class="st2" d="M149.72,79.64h-0.46h-1.7h-1.6h-0.48c-0.16,0-0.29,0.04-0.38,0.12c-0.13,0.08-0.22,0.19-0.27,0.32
		c-0.05,0.13-0.1,0.26-0.15,0.4c-0.08,0.26-0.17,0.52-0.25,0.78c-0.08,0.26-0.16,0.52-0.25,0.78c-0.33,1.02-0.66,2.04-0.99,3.05
		c-0.33,1.01-0.66,2.02-0.99,3.02c-0.13,0.38-0.25,0.75-0.36,1.12c-0.11,0.37-0.23,0.74-0.36,1.12c-0.05,0.13-0.1,0.28-0.15,0.45
		c-0.05,0.17-0.14,0.26-0.27,0.3c-0.03,0.03-0.07,0.04-0.1,0.03c-0.03-0.02-0.07-0.03-0.1-0.05c-0.08-0.05-0.14-0.11-0.17-0.2
		c-0.03-0.08-0.07-0.16-0.1-0.25c-0.13-0.33-0.25-0.67-0.34-1.01c-0.1-0.35-0.22-0.68-0.35-1.01c-0.4-1.05-0.76-2.12-1.1-3.18
		c-0.34-1.07-0.7-2.12-1.07-3.16c-0.1-0.28-0.19-0.55-0.28-0.83c-0.09-0.27-0.19-0.54-0.28-0.8c-0.05-0.15-0.1-0.3-0.15-0.46
		c-0.05-0.16-0.13-0.27-0.25-0.36c-0.15-0.11-0.36-0.17-0.63-0.17h-0.8h-3.23c-0.03,0.02-0.07,0.02-0.1,0.01
		c-0.03-0.01-0.06,0-0.1,0.01c-0.2,0.05-0.33,0.13-0.39,0.25c-0.03,0.07-0.06,0.16-0.07,0.28c-0.02,0.12-0.03,0.25-0.03,0.38v0.41
		v0.36v3.45v9.18v2.17c0,0.18,0.01,0.36,0.03,0.53c0.02,0.17,0.07,0.3,0.17,0.38c0.1,0.08,0.22,0.13,0.37,0.14
		c0.15,0.01,0.31,0.01,0.49,0.01h1.28c0.13,0,0.26,0,0.4,0.01c0.13,0.01,0.25,0,0.37-0.04c0.18-0.03,0.3-0.11,0.37-0.22
		c0.07-0.08,0.1-0.19,0.1-0.32v-0.39v-1.21v-6.57c0.02-0.18,0.03-0.36,0.03-0.54v-0.54c0-0.13,0-0.26-0.01-0.38
		c-0.01-0.12,0-0.24,0.04-0.36c0.03-0.11,0.05-0.23,0.05-0.35c0-0.11,0.04-0.2,0.12-0.25c0.05-0.03,0.09-0.04,0.12-0.01
		c0.03,0.03,0.07,0.05,0.1,0.09c0.1,0.15,0.19,0.34,0.27,0.57c0.18,0.39,0.34,0.81,0.47,1.23c0.13,0.43,0.27,0.85,0.42,1.26
		c0.13,0.35,0.26,0.7,0.37,1.06c0.12,0.36,0.24,0.71,0.37,1.04c0.08,0.16,0.14,0.33,0.19,0.49c0.04,0.17,0.09,0.33,0.16,0.49
		c0.02,0.03,0.03,0.07,0.04,0.12c0.01,0.05,0.02,0.09,0.04,0.12c0.07,0.16,0.12,0.33,0.17,0.49c0.05,0.17,0.11,0.32,0.2,0.47
		c0.02,0.05,0.03,0.09,0.04,0.13c0.01,0.04,0.02,0.09,0.04,0.14c0.08,0.2,0.16,0.41,0.22,0.63c0.07,0.22,0.14,0.43,0.22,0.63
		l0.07,0.22c0.08,0.2,0.15,0.4,0.21,0.6c0.06,0.2,0.13,0.41,0.21,0.6c0.07,0.15,0.12,0.28,0.17,0.38c0.05,0.11,0.14,0.2,0.27,0.28
		c0.07,0.05,0.17,0.08,0.3,0.1c0.13,0.02,0.28,0.02,0.43,0.02c0.16,0,0.31,0,0.47-0.01c0.16-0.01,0.29-0.01,0.41-0.01h0.57
		c0.11-0.03,0.21-0.05,0.3-0.06c0.08-0.01,0.16-0.04,0.25-0.11c0.08-0.07,0.15-0.15,0.18-0.25c0.04-0.1,0.09-0.21,0.14-0.32
		c0.08-0.18,0.15-0.37,0.2-0.56c0.05-0.19,0.11-0.37,0.2-0.56c0.03-0.05,0.05-0.1,0.05-0.15c0-0.05,0.02-0.1,0.05-0.15
		c0.18-0.48,0.35-0.96,0.49-1.45c0.15-0.48,0.32-0.97,0.52-1.44c0.07-0.16,0.12-0.33,0.16-0.49c0.04-0.16,0.09-0.32,0.16-0.47
		c0.08-0.17,0.14-0.33,0.18-0.5c0.04-0.16,0.09-0.32,0.16-0.47c0.03-0.05,0.05-0.1,0.05-0.16s0.02-0.11,0.05-0.16
		c0.08-0.21,0.16-0.43,0.22-0.64c0.07-0.21,0.14-0.43,0.22-0.64c0.05-0.1,0.09-0.2,0.11-0.3c0.03-0.1,0.05-0.2,0.09-0.3
		c0.1-0.26,0.19-0.53,0.29-0.79c0.09-0.26,0.18-0.52,0.28-0.77c0.03-0.08,0.07-0.17,0.11-0.26c0.04-0.09,0.09-0.17,0.16-0.23
		c0.02-0.02,0.04-0.04,0.06-0.07c0.03-0.03,0.06-0.04,0.11-0.03c0.1,0.03,0.15,0.11,0.15,0.25c0,0.13,0.02,0.26,0.05,0.37
		c0.03,0.13,0.04,0.27,0.04,0.41c-0.01,0.14-0.01,0.28-0.01,0.41v0.63c0,0.21,0.01,0.42,0.02,0.65v6.34v1.26v0.42
		c0,0.13,0.03,0.24,0.1,0.32c0.07,0.1,0.14,0.16,0.23,0.17c0.09,0.02,0.2,0.04,0.33,0.07h0.67h1.18c0.18,0,0.35,0,0.49-0.01
		c0.15-0.01,0.27-0.05,0.37-0.14c0.1-0.08,0.15-0.21,0.16-0.38c0.01-0.17,0.01-0.35,0.01-0.53v-2.15v-9.18v-3.7v-0.83
		c0-0.27-0.09-0.46-0.27-0.56C149.99,79.67,149.87,79.64,149.72,79.64z"/>
	<path class="st2" d="M157.58,91.61v-8.57V80.9c0-0.21,0-0.41-0.01-0.59c-0.01-0.18-0.05-0.33-0.14-0.44
		c-0.08-0.11-0.21-0.18-0.37-0.19c-0.16-0.01-0.34-0.01-0.52-0.01h-2.12c-0.03,0-0.07,0-0.11,0.01c-0.04,0.01-0.09,0.01-0.14,0.01
		c-0.15,0.07-0.26,0.15-0.32,0.25c-0.08,0.13-0.12,0.35-0.11,0.67c0.01,0.31,0.01,0.58,0.01,0.81v3.6v9.01v2.15
		c0,0.18,0.01,0.35,0.02,0.52c0.02,0.16,0.07,0.29,0.15,0.37c0.1,0.08,0.23,0.13,0.38,0.15c0.16,0.02,0.32,0.03,0.51,0.03h1.46
		c0.13,0,0.26,0.01,0.39,0.02c0.13,0.02,0.25,0.01,0.37-0.02c0.23-0.07,0.38-0.16,0.45-0.27c0.08-0.13,0.12-0.33,0.11-0.59
		c-0.01-0.26-0.01-0.5-0.01-0.72V91.61z"/>
	<path class="st2" d="M174.09,80.77v-0.24c0-0.08-0.01-0.16-0.02-0.22v-0.12c-0.02-0.08-0.04-0.16-0.06-0.23
		c-0.03-0.07-0.06-0.13-0.11-0.16c-0.13-0.08-0.3-0.13-0.51-0.14c-0.21-0.01-0.42-0.01-0.63-0.01h-2.52h-9.87h-0.12
		c-0.13,0.03-0.22,0.07-0.27,0.1c-0.13,0.08-0.21,0.21-0.23,0.37c-0.03,0.17-0.04,0.35-0.04,0.57v1.21c0,0.13,0,0.26,0.01,0.4
		c0.01,0.13,0.04,0.24,0.09,0.32c0.07,0.1,0.16,0.17,0.29,0.22c0.13,0.03,0.31,0.05,0.53,0.04c0.22-0.01,0.42-0.01,0.6-0.01h2.29
		c0.35,0,0.65,0.01,0.9,0.04c0.26,0.02,0.42,0.18,0.51,0.46c0.03,0.07,0.04,0.13,0.02,0.2c-0.02,0.07-0.02,0.14,0,0.22
		c0.03,0.1,0.04,0.21,0.04,0.33c-0.01,0.12-0.01,0.24-0.01,0.36v2.1v6.86v2.47v0.63c0,0.21,0.04,0.37,0.12,0.51
		c0.08,0.1,0.2,0.16,0.36,0.17c0.16,0.02,0.33,0.03,0.51,0.03h1.68h0.42c0.15,0,0.28-0.02,0.4-0.05c0.18-0.08,0.28-0.22,0.31-0.41
		c0.03-0.19,0.04-0.42,0.04-0.68v-2.32v-7.11v-2.2c0-0.1,0-0.21-0.01-0.33c-0.01-0.12,0-0.23,0.01-0.33
		c0.03-0.08,0.04-0.16,0.02-0.22c-0.02-0.07-0.02-0.14,0-0.22c0.08-0.28,0.24-0.43,0.48-0.46c0.24-0.03,0.52-0.04,0.85-0.04h2.52
		c0.35,0,0.64-0.01,0.89-0.03c0.25-0.02,0.41-0.16,0.49-0.45c0.03-0.1,0.04-0.2,0.04-0.31c-0.01-0.11-0.01-0.22-0.01-0.33V80.77z"/>
	<path class="st2" d="M189.4,94.35c-0.05-0.13-0.14-0.22-0.27-0.27c-0.1-0.05-0.21-0.07-0.33-0.07h-0.38h-1.31h-4.64h-1.04
		c-0.08,0-0.17,0.01-0.27,0.01c-0.1,0.01-0.19,0-0.27-0.01h-0.25c-0.08-0.03-0.16-0.05-0.23-0.06c-0.07-0.01-0.14-0.03-0.18-0.08
		c-0.11-0.08-0.18-0.2-0.21-0.36c-0.03-0.16-0.04-0.33-0.04-0.53v-1.38v-0.94v-0.26c0-0.09,0.01-0.18,0.03-0.26
		c0.05-0.15,0.13-0.26,0.23-0.33c0.11-0.07,0.24-0.12,0.39-0.15c0.16-0.02,0.33-0.03,0.51-0.02c0.18,0.01,0.37,0.01,0.57,0.01h4.81
		c0.11,0,0.26,0,0.43,0.01c0.17,0.01,0.34,0.01,0.52,0.01c0.17,0,0.33-0.01,0.47-0.02c0.14-0.02,0.25-0.05,0.33-0.1
		c0.1-0.08,0.16-0.19,0.2-0.32c0.03-0.08,0.05-0.18,0.05-0.3v-0.35c0-0.13,0.01-0.29,0.01-0.47c0.01-0.18,0.01-0.36,0-0.53
		c-0.01-0.17-0.03-0.33-0.06-0.48c-0.03-0.15-0.09-0.25-0.17-0.3c-0.07-0.05-0.17-0.08-0.31-0.1c-0.14-0.02-0.29-0.03-0.46-0.04
		c-0.17-0.01-0.33-0.01-0.51,0c-0.17,0.01-0.32,0.01-0.43,0.01h-4.25h-1.33c-0.15,0-0.29,0-0.42-0.01
		c-0.13-0.01-0.25-0.04-0.35-0.11c-0.08-0.05-0.14-0.12-0.17-0.21c-0.03-0.09-0.07-0.2-0.1-0.33v-0.72v-1.41
		c0-0.2,0.01-0.37,0.04-0.53c0.02-0.16,0.09-0.28,0.21-0.36c0.07-0.05,0.17-0.09,0.32-0.11c0.15-0.03,0.31-0.04,0.48-0.05
		c0.17-0.01,0.35-0.01,0.52,0c0.17,0.01,0.33,0.01,0.46,0.01h4.47h1.7h0.47c0.15,0,0.27-0.03,0.37-0.1c0.12-0.07,0.2-0.2,0.25-0.4
		c0-0.16,0.01-0.29,0.03-0.37c0.02-0.12,0.02-0.23,0.01-0.36c-0.01-0.12-0.01-0.25-0.01-0.38c0-0.12,0-0.24,0.01-0.37
		c0.01-0.13,0-0.26-0.01-0.37v-0.27c-0.03-0.07-0.05-0.13-0.06-0.2c-0.01-0.07-0.03-0.12-0.06-0.17c-0.08-0.11-0.22-0.18-0.4-0.2
		c-0.18-0.02-0.37-0.03-0.57-0.03h-2.15h-9.23c-0.03,0.02-0.07,0.02-0.1,0.01c-0.03-0.01-0.06,0-0.1,0.01
		c-0.18,0.05-0.3,0.13-0.37,0.25c-0.07,0.08-0.1,0.2-0.1,0.35v0.44v1.53v5.38v6.71v1.78v0.46c0,0.16,0.03,0.28,0.1,0.38
		c0.08,0.13,0.21,0.21,0.38,0.24c0.17,0.02,0.37,0.04,0.61,0.04h1.95h7.31h1.85h0.51c0.16,0,0.28-0.04,0.38-0.12
		c0.13-0.08,0.21-0.21,0.22-0.38c0.02-0.17,0.03-0.36,0.03-0.55v-1.14c0-0.13-0.01-0.26-0.01-0.37
		C189.45,94.53,189.43,94.44,189.4,94.35z"/>
	<path class="st2" d="M207.69,87.86v-0.27c-0.03-0.08-0.05-0.18-0.04-0.29c0.01-0.12-0.01-0.22-0.04-0.32
		c0-0.07-0.01-0.13-0.01-0.18c-0.01-0.06-0.01-0.13-0.01-0.21c-0.05-0.23-0.09-0.46-0.11-0.69c-0.03-0.23-0.08-0.45-0.16-0.67
		c-0.13-0.43-0.28-0.84-0.44-1.22c-0.16-0.39-0.35-0.75-0.57-1.1c-0.08-0.13-0.18-0.26-0.28-0.38c-0.11-0.12-0.2-0.25-0.28-0.38
		l-0.22-0.2c-0.13-0.16-0.28-0.31-0.44-0.44l-0.15-0.15c-0.35-0.25-0.72-0.5-1.14-0.77c-0.16-0.1-0.34-0.18-0.52-0.25
		c-0.18-0.07-0.36-0.14-0.54-0.22c-0.2-0.08-0.4-0.14-0.62-0.19c-0.21-0.04-0.44-0.09-0.67-0.13c-0.1-0.03-0.19-0.05-0.28-0.04
		c-0.09,0.01-0.18,0-0.28-0.04c-0.08-0.03-0.17-0.04-0.27-0.04c-0.1,0.01-0.19,0-0.27-0.04h-0.3c-0.08-0.01-0.18-0.02-0.28-0.01
		c-0.11,0.01-0.21,0.01-0.31,0.01h-6.64c-0.03,0.02-0.07,0.02-0.1,0.01c-0.03-0.01-0.07,0-0.1,0.01c-0.18,0.07-0.3,0.15-0.37,0.25
		c-0.08,0.13-0.12,0.31-0.11,0.53c0.01,0.22,0.01,0.43,0.01,0.63v14.49c0,0.18,0,0.41-0.01,0.68c-0.01,0.27,0.01,0.47,0.06,0.6
		c0.08,0.2,0.22,0.31,0.41,0.33c0.19,0.02,0.42,0.04,0.7,0.04h5.75c0.15,0,0.32,0.01,0.52,0.03c0.2,0.02,0.36,0.01,0.49-0.03
		c0.03-0.02,0.08-0.02,0.15-0.01c0.07,0.01,0.11,0,0.15-0.01c0.08-0.02,0.16-0.02,0.22-0.01c0.07,0.01,0.13,0.01,0.2-0.01
		c0.08-0.02,0.16-0.02,0.23-0.02c0.07,0,0.15-0.01,0.23-0.03c0.18-0.05,0.36-0.09,0.53-0.11c0.17-0.02,0.34-0.06,0.51-0.11
		c0.41-0.13,0.79-0.28,1.15-0.44c0.35-0.16,0.7-0.36,1.03-0.59c0.58-0.4,1.07-0.87,1.48-1.43c0.41-0.56,0.76-1.18,1.04-1.88
		c0.1-0.25,0.18-0.5,0.25-0.75c0.07-0.25,0.14-0.52,0.22-0.8c0.05-0.18,0.08-0.36,0.1-0.54c0.01-0.18,0.04-0.36,0.07-0.54
		c0.02-0.08,0.02-0.16,0.01-0.25c-0.01-0.08,0-0.16,0.04-0.25c0-0.1,0-0.2,0.01-0.31c0.01-0.11,0.01-0.22,0.01-0.33
		c0-0.03,0-0.09,0.01-0.17c0.01-0.08,0.01-0.17,0.01-0.27c0-0.1-0.01-0.19-0.01-0.27C207.7,87.98,207.69,87.91,207.69,87.86z
		 M203.84,89.04v0.25c-0.03,0.13-0.05,0.26-0.05,0.4c0,0.13-0.02,0.26-0.05,0.37v0.2c-0.05,0.16-0.09,0.33-0.12,0.49
		c-0.03,0.16-0.08,0.31-0.15,0.44c-0.25,0.61-0.55,1.12-0.9,1.53c-0.35,0.41-0.84,0.74-1.44,0.99c-0.46,0.18-1.02,0.28-1.68,0.28
		c-0.66,0.01-1.31,0.01-1.95,0.01c-0.3,0-0.59,0-0.87-0.01c-0.28-0.01-0.47-0.11-0.57-0.31c-0.03-0.08-0.05-0.18-0.06-0.28
		c-0.01-0.11-0.01-0.22-0.01-0.33v-0.25c-0.03-0.08-0.05-0.18-0.04-0.3c0.01-0.11,0.01-0.22,0.01-0.32v-6.89
		c0-0.23,0-0.46,0.01-0.69c0.01-0.23,0.01-0.45,0.01-0.67v-0.49c0-0.15,0.03-0.26,0.1-0.35c0.05-0.08,0.11-0.14,0.2-0.16
		c0.08-0.03,0.16-0.05,0.25-0.09c0.05-0.02,0.11-0.02,0.19,0c0.07,0.02,0.13,0.01,0.16-0.03h1.11c0.1,0,0.2,0,0.3-0.01
		c0.1-0.01,0.19-0.01,0.27,0.01h0.54c0.05,0.02,0.11,0.02,0.17,0.01c0.07-0.01,0.13,0,0.2,0.01c0.13,0.03,0.25,0.05,0.36,0.06
		c0.11,0.01,0.23,0.02,0.36,0.04c0.15,0.03,0.29,0.07,0.44,0.11c0.15,0.04,0.3,0.09,0.45,0.14c0.46,0.2,0.85,0.44,1.17,0.73
		c0.32,0.29,0.61,0.63,0.85,1.02c0.13,0.21,0.23,0.44,0.31,0.68c0.07,0.24,0.15,0.49,0.23,0.75c0.03,0.08,0.04,0.16,0.04,0.23
		c-0.01,0.07,0,0.15,0.04,0.23c0.03,0.13,0.05,0.28,0.06,0.45c0.01,0.16,0.03,0.32,0.06,0.47v0.47c0.03,0.08,0.05,0.21,0.05,0.4
		C203.89,88.83,203.87,88.96,203.84,89.04z"/>
</g>
</svg>
